<?xml version="1.0" encoding="UTF-8"?>
<svg id="Layer_1" data-name="Layer 1" xmlns="http://www.w3.org/2000/svg" viewBox="0 0 256 256">
  <defs>
    <style>
      .cls-1 {
        fill: #ed1a81;
      }

      .cls-1, .cls-2, .cls-3, .cls-4 {
        stroke-width: 0px;
      }

      .cls-2 {
        fill: #3f6ab3;
      }

      .cls-3 {
        fill: #f8d492;
      }

      .cls-4 {
        fill: #fcb325;
      }
    </style>
  </defs>
  <g id="Groupe_2" data-name="Groupe 2">
    <g id="Tracé_4" data-name="Tracé 4">
      <path class="cls-4" d="M126.92,79.12c36.98,0,66.95,29.97,66.95,66.95s-29.97,66.95-66.95,66.95-66.95-29.97-66.95-66.95,29.97-66.95,66.95-66.95Z"/>
      <path class="cls-4" d="M126.92,79.46c-4.52,0-9.04.46-13.42,1.35-4.28.88-8.48,2.18-12.5,3.88-3.95,1.67-7.75,3.74-11.31,6.14-3.53,2.38-6.84,5.12-9.86,8.13-3.01,3.01-5.75,6.33-8.13,9.86-2.41,3.56-4.47,7.37-6.14,11.31-1.7,4.02-3.01,8.23-3.88,12.5-.9,4.39-1.35,8.91-1.35,13.42s.46,9.04,1.35,13.42c.88,4.28,2.18,8.48,3.88,12.5,1.67,3.95,3.74,7.75,6.14,11.31,2.38,3.53,5.12,6.84,8.13,9.86,3.01,3.01,6.33,5.75,9.86,8.13,3.56,2.41,7.37,4.47,11.31,6.14,4.02,1.7,8.23,3.01,12.5,3.88,4.39.9,8.91,1.35,13.42,1.35s9.04-.46,13.42-1.35c4.28-.88,8.48-2.18,12.5-3.88,3.95-1.67,7.75-3.74,11.31-6.14,3.53-2.38,6.84-5.12,9.86-8.13,3.01-3.01,5.75-6.33,8.13-9.86,2.41-3.56,4.47-7.37,6.14-11.31,1.7-4.02,3.01-8.23,3.88-12.5.9-4.39,1.35-8.91,1.35-13.42s-.46-9.04-1.35-13.42c-.88-4.28-2.18-8.48-3.88-12.5-1.67-3.95-3.74-7.75-6.14-11.31-2.38-3.53-5.12-6.84-8.13-9.86-3.01-3.01-6.33-5.75-9.86-8.13-3.56-2.41-7.37-4.47-11.31-6.14-4.02-1.7-8.23-3.01-12.5-3.88-4.39-.9-8.91-1.35-13.42-1.35M126.92,79.12c36.98,0,66.95,29.97,66.95,66.95s-29.97,66.95-66.95,66.95-66.95-29.97-66.95-66.95,29.97-66.95,66.95-66.95Z"/>
    </g>
    <g id="Tracé_6" data-name="Tracé 6">
      <path class="cls-4" d="M54.38,43.67c11.57,0,20.96,9.38,20.96,20.96s-9.38,20.96-20.96,20.96-20.96-9.38-20.96-20.96h0c0-11.57,9.38-20.96,20.96-20.96Z"/>
      <path class="cls-4" d="M54.38,44.01c-2.78,0-5.48.55-8.02,1.62-1.22.52-2.4,1.16-3.5,1.9-1.09.74-2.12,1.58-3.05,2.52-.93.93-1.78,1.96-2.52,3.05-.74,1.1-1.38,2.28-1.9,3.5-1.07,2.54-1.62,5.24-1.62,8.02s.55,5.48,1.62,8.02c.52,1.22,1.16,2.4,1.9,3.5.74,1.09,1.58,2.12,2.52,3.05s1.96,1.78,3.05,2.52c1.1.74,2.28,1.38,3.5,1.9,2.54,1.07,5.24,1.62,8.02,1.62s5.48-.55,8.02-1.62c1.22-.52,2.4-1.16,3.5-1.9,1.09-.74,2.12-1.58,3.05-2.52.93-.93,1.78-1.96,2.52-3.05.74-1.1,1.38-2.28,1.9-3.5,1.07-2.54,1.62-5.24,1.62-8.02s-.55-5.48-1.62-8.02c-.52-1.22-1.16-2.4-1.9-3.5-.74-1.09-1.58-2.12-2.52-3.05-.93-.93-1.96-1.78-3.05-2.52-1.1-.74-2.28-1.38-3.5-1.9-2.54-1.07-5.24-1.62-8.02-1.62M54.38,43.67c11.57,0,20.96,9.38,20.96,20.96s-9.38,20.96-20.96,20.96-20.96-9.38-20.96-20.96,9.38-20.96,20.96-20.96Z"/>
    </g>
    <g id="Tracé_7" data-name="Tracé 7">
      <path class="cls-4" d="M201.27,42.98c11.76,0,21.3,9.54,21.3,21.3s-9.54,21.3-21.3,21.3-21.3-9.54-21.3-21.3c0-11.76,9.54-21.3,21.3-21.3h0Z"/>
      <path class="cls-4" d="M201.27,43.31c-2.83,0-5.58.55-8.16,1.65-1.24.53-2.44,1.18-3.56,1.93-1.11.75-2.15,1.61-3.1,2.56s-1.81,1.99-2.56,3.1c-.76,1.12-1.41,2.32-1.93,3.56-1.09,2.58-1.65,5.33-1.65,8.16s.55,5.58,1.65,8.16c.53,1.24,1.18,2.44,1.93,3.56.75,1.11,1.61,2.15,2.56,3.1.95.95,1.99,1.81,3.1,2.56,1.12.76,2.32,1.41,3.56,1.93,2.58,1.09,5.33,1.65,8.16,1.65s5.58-.55,8.16-1.65c1.24-.53,2.44-1.18,3.56-1.93,1.11-.75,2.15-1.61,3.1-2.56.95-.95,1.81-1.99,2.56-3.1.76-1.12,1.41-2.32,1.93-3.56,1.09-2.58,1.65-5.33,1.65-8.16s-.55-5.58-1.65-8.16c-.53-1.24-1.18-2.44-1.93-3.56-.75-1.11-1.61-2.15-2.56-3.1s-1.99-1.81-3.1-2.56c-1.12-.76-2.32-1.41-3.56-1.93-2.58-1.09-5.33-1.65-8.16-1.65M201.27,42.98c11.76,0,21.3,9.54,21.3,21.3s-9.54,21.3-21.3,21.3-21.3-9.54-21.3-21.3,9.54-21.3,21.3-21.3Z"/>
    </g>
    <path id="Polygone_3" data-name="Polygone 3" class="cls-1" d="M105.77,113.68l13.38,22.35h-26.76l13.38-22.35Z"/>
    <g id="Tracé_8" data-name="Tracé 8">
      <path class="cls-2" d="M149.49,114.02l12.69,12.69-12.69,12.69-12.69-12.69,12.69-12.69Z"/>
      <path class="cls-2" d="M149.49,114.5l-12.21,12.21,12.21,12.21,12.21-12.21-12.21-12.21M149.49,114.02l12.69,12.69-12.69,12.69-12.69-12.69,12.69-12.69Z"/>
    </g>
    <g id="Tracé_9" data-name="Tracé 9">
      <path class="cls-3" d="M126.92,155.58c18.32,0,33.18,10.48,33.18,23.4s-14.85,23.4-33.18,23.4-33.18-10.48-33.18-23.4,14.85-23.4,33.18-23.4Z"/>
      <path class="cls-3" d="M126.92,155.91c-4.45,0-8.76.61-12.82,1.82-1.95.58-3.83,1.3-5.59,2.14-1.74.83-3.37,1.78-4.86,2.83-1.48,1.05-2.83,2.2-4,3.42-1.18,1.23-2.19,2.55-3.01,3.92-.83,1.39-1.47,2.84-1.9,4.31-.44,1.51-.66,3.07-.66,4.62s.22,3.11.66,4.62c.43,1.47,1.07,2.93,1.9,4.31.82,1.37,1.83,2.68,3.01,3.92,1.17,1.22,2.52,2.37,4,3.42,1.49,1.05,3.12,2,4.86,2.83,1.76.84,3.64,1.56,5.59,2.14,4.06,1.21,8.37,1.82,12.82,1.82s8.76-.61,12.82-1.82c1.95-.58,3.83-1.3,5.59-2.14,1.74-.83,3.37-1.78,4.86-2.83,1.48-1.05,2.83-2.2,4-3.42,1.18-1.23,2.19-2.55,3.01-3.92.83-1.39,1.47-2.84,1.9-4.31.44-1.51.66-3.07.66-4.62s-.22-3.11-.66-4.62c-.43-1.47-1.07-2.93-1.9-4.31-.82-1.37-1.83-2.68-3.01-3.92-1.17-1.22-2.52-2.37-4-3.42-1.49-1.05-3.12-2-4.86-2.83-1.76-.84-3.64-1.56-5.59-2.14-4.06-1.21-8.37-1.82-12.82-1.82M126.92,155.58c18.32,0,33.18,10.48,33.18,23.4s-14.85,23.4-33.18,23.4-33.18-10.48-33.18-23.4,14.85-23.4,33.18-23.4Z"/>
    </g>
    <g id="Tracé_10" data-name="Tracé 10">
      <path class="cls-2" d="M126.92,155.57l14.33,14.33-14.33,14.33-14.33-14.33,14.33-14.33Z"/>
      <path class="cls-2" d="M126.92,156.05l-13.85,13.85,13.85,13.85,13.85-13.85-13.85-13.85M126.92,155.57l14.33,14.33-14.33,14.33-14.33-14.33,14.33-14.33Z"/>
    </g>
    <path id="Polygone_4" data-name="Polygone 4" class="cls-1" d="M126.92,173.01l10.72,17.87h-21.45l10.72-17.87Z"/>
    <path id="Polygone_5" data-name="Polygone 5" class="cls-1" d="M214.98,48.37l-5.68,35.74-28.52-23.93,34.21-11.8Z"/>
    <g id="Tracé_11" data-name="Tracé 11">
      <path class="cls-2" d="M54.38,43.67l20.96,20.96-20.96,20.96-20.96-20.96,20.96-20.96Z"/>
      <path class="cls-2" d="M54.38,44.15l-20.48,20.48,20.48,20.48,20.48-20.48-20.48-20.48M54.38,43.67l20.96,20.96-20.96,20.96-20.96-20.96,20.96-20.96Z"/>
    </g>
  </g>
</svg>