<?xml version="1.0" encoding="UTF-8"?>
<svg id="Layer_1" data-name="Layer 1" xmlns="http://www.w3.org/2000/svg" viewBox="0 0 32 32">
  <defs>
    <style>
      .cls-1 {
        fill: #ed1a81;
      }

      .cls-1, .cls-2, .cls-3, .cls-4, .cls-5 {
        stroke-width: 0px;
      }

      .cls-2 {
        fill: #3f6ab3;
      }

      .cls-3 {
        fill: #f8d492;
      }

      .cls-4 {
        fill: #fcb325;
      }

      .cls-5 {
        fill: #150c3e;
      }
    </style>
  </defs>
  <rect class="cls-5" y="0" width="32" height="32"/>
  <g id="Groupe_2" data-name="Groupe 2">
    <g id="Tracé_4" data-name="Tracé 4">
      <path class="cls-4" d="M16.17,8.7c5.52,0,10,4.48,10,10s-4.48,10-10,10-10-4.48-10-10,4.48-10,10-10Z"/>
      <path class="cls-4" d="M16.17,8.75c-.68,0-1.35.07-2.01.2-.64.13-1.27.33-1.87.58-.59.25-1.16.56-1.69.92-.53.36-1.02.76-1.47,1.21-.45.45-.86.95-1.21,1.47-.36.53-.67,1.1-.92,1.69-.25.6-.45,1.23-.58,1.87-.13.66-.2,1.33-.2,2.01s.07,1.35.2,2.01c.13.64.33,1.27.58,1.87.25.59.56,1.16.92,1.69.36.53.76,1.02,1.21,1.47.45.45.95.86,1.47,1.21.53.36,1.1.67,1.69.92.6.25,1.23.45,1.87.58.66.13,1.33.2,2.01.2s1.35-.07,2.01-.2c.64-.13,1.27-.33,1.87-.58.59-.25,1.16-.56,1.69-.92.53-.36,1.02-.76,1.47-1.21.45-.45.86-.95,1.21-1.47.36-.53.67-1.1.92-1.69.25-.6.45-1.23.58-1.87.13-.66.2-1.33.2-2.01s-.07-1.35-.2-2.01c-.13-.64-.33-1.27-.58-1.87-.25-.59-.56-1.16-.92-1.69-.36-.53-.76-1.02-1.21-1.47-.45-.45-.95-.86-1.47-1.21-.53-.36-1.1-.67-1.69-.92-.6-.25-1.23-.45-1.87-.58-.66-.13-1.33-.2-2.01-.2M16.17,8.7c5.52,0,10,4.48,10,10s-4.48,10-10,10-10-4.48-10-10,4.48-10,10-10Z"/>
    </g>
    <g id="Tracé_6" data-name="Tracé 6">
      <path class="cls-4" d="M5.33,3.4c1.73,0,3.13,1.4,3.13,3.13s-1.4,3.13-3.13,3.13-3.13-1.4-3.13-3.13h0c0-1.73,1.4-3.13,3.13-3.13Z"/>
      <path class="cls-4" d="M5.33,3.45c-.42,0-.82.08-1.2.24-.18.08-.36.17-.52.28-.16.11-.32.24-.46.38-.14.14-.27.29-.38.46-.11.16-.21.34-.28.52-.16.38-.24.78-.24,1.2s.08.82.24,1.2c.08.18.17.36.28.52.11.16.24.32.38.46s.29.27.46.38c.16.11.34.21.52.28.38.16.78.24,1.2.24s.82-.08,1.2-.24c.18-.08.36-.17.52-.28.16-.11.32-.24.46-.38.14-.14.27-.29.38-.46.11-.16.21-.34.28-.52.16-.38.24-.78.24-1.2s-.08-.82-.24-1.2c-.08-.18-.17-.36-.28-.52-.11-.16-.24-.32-.38-.46s-.29-.27-.46-.38c-.16-.11-.34-.21-.52-.28-.38-.16-.78-.24-1.2-.24M5.33,3.4c1.73,0,3.13,1.4,3.13,3.13s-1.4,3.13-3.13,3.13-3.13-1.4-3.13-3.13,1.4-3.13,3.13-3.13Z"/>
    </g>
    <g id="Tracé_7" data-name="Tracé 7">
      <path class="cls-4" d="M27.27,3.3c1.76,0,3.18,1.42,3.18,3.18s-1.42,3.18-3.18,3.18-3.18-1.42-3.18-3.18c0-1.76,1.42-3.18,3.18-3.18h0Z"/>
      <path class="cls-4" d="M27.27,3.35c-.42,0-.83.08-1.22.25-.19.08-.36.18-.53.29-.17.11-.32.24-.46.38s-.27.3-.38.46c-.11.17-.21.35-.29.53-.16.39-.25.8-.25,1.22s.08.83.25,1.22c.08.19.18.36.29.53.11.17.24.32.38.46.14.14.3.27.46.38.17.11.35.21.53.29.39.16.8.25,1.22.25s.83-.08,1.22-.25c.19-.08.36-.18.53-.29.17-.11.32-.24.46-.38.14-.14.27-.3.38-.46.11-.17.21-.35.29-.53.16-.39.25-.8.25-1.22s-.08-.83-.25-1.22c-.08-.19-.18-.36-.29-.53-.11-.17-.24-.32-.38-.46s-.3-.27-.46-.38c-.17-.11-.35-.21-.53-.29-.39-.16-.8-.25-1.22-.25M27.27,3.3c1.76,0,3.18,1.42,3.18,3.18s-1.42,3.18-3.18,3.18-3.18-1.42-3.18-3.18,1.42-3.18,3.18-3.18Z"/>
    </g>
    <path id="Polygone_3" data-name="Polygone 3" class="cls-1" d="M13.01,13.86l2,3.34h-4l2-3.34Z"/>
    <g id="Tracé_8" data-name="Tracé 8">
      <path class="cls-2" d="M19.54,13.91l1.9,1.9-1.9,1.9-1.9-1.9,1.9-1.9Z"/>
      <path class="cls-2" d="M19.54,13.98l-1.82,1.82,1.82,1.82,1.82-1.82-1.82-1.82M19.54,13.91l1.9,1.9-1.9,1.9-1.9-1.9,1.9-1.9Z"/>
    </g>
    <g id="Tracé_9" data-name="Tracé 9">
      <path class="cls-3" d="M16.17,20.12c2.74,0,4.96,1.57,4.96,3.5s-2.22,3.5-4.96,3.5-4.96-1.56-4.96-3.5,2.22-3.5,4.96-3.5Z"/>
      <path class="cls-3" d="M16.17,20.17c-.66,0-1.31.09-1.91.27-.29.09-.57.19-.83.32-.26.12-.5.27-.73.42-.22.16-.42.33-.6.51-.18.18-.33.38-.45.58-.12.21-.22.42-.28.64-.07.23-.1.46-.1.69s.03.46.1.69c.06.22.16.44.28.64.12.2.27.4.45.58.18.18.38.35.6.51.22.16.47.3.73.42.26.13.54.23.83.32.61.18,1.25.27,1.91.27s1.31-.09,1.91-.27c.29-.09.57-.19.83-.32.26-.12.5-.27.73-.42.22-.16.42-.33.6-.51.18-.18.33-.38.45-.58.12-.21.22-.42.28-.64.07-.23.1-.46.1-.69s-.03-.46-.1-.69c-.06-.22-.16-.44-.28-.64-.12-.2-.27-.4-.45-.58-.18-.18-.38-.35-.6-.51-.22-.16-.47-.3-.73-.42-.26-.13-.54-.23-.83-.32-.61-.18-1.25-.27-1.91-.27M16.17,20.12c2.74,0,4.96,1.57,4.96,3.5s-2.22,3.5-4.96,3.5-4.96-1.57-4.96-3.5,2.22-3.5,4.96-3.5Z"/>
    </g>
    <g id="Tracé_10" data-name="Tracé 10">
      <path class="cls-2" d="M16.17,20.12l2.14,2.14-2.14,2.14-2.14-2.14,2.14-2.14Z"/>
      <path class="cls-2" d="M16.17,20.19l-2.07,2.07,2.07,2.07,2.07-2.07-2.07-2.07M16.17,20.12l2.14,2.14-2.14,2.14-2.14-2.14,2.14-2.14Z"/>
    </g>
    <path id="Polygone_4" data-name="Polygone 4" class="cls-1" d="M16.17,22.72l1.6,2.67h-3.2l1.6-2.67Z"/>
    <path id="Polygone_5" data-name="Polygone 5" class="cls-1" d="M29.32,4.11l-.85,5.34-4.26-3.57,5.11-1.76Z"/>
    <g id="Tracé_11" data-name="Tracé 11">
      <path class="cls-2" d="M5.33,3.4l3.13,3.13-3.13,3.13-3.13-3.13,3.13-3.13Z"/>
      <path class="cls-2" d="M5.33,3.48l-3.06,3.06,3.06,3.06,3.06-3.06-3.06-3.06M5.33,3.4l3.13,3.13-3.13,3.13-3.13-3.13,3.13-3.13Z"/>
    </g>
  </g>
</svg>