<svg xmlns="http://www.w3.org/2000/svg" width="84" height="34" viewBox="0 0 84 34">
  <g id="btn-play" transform="translate(-827 -310)">
    <g id="Rectangle_30" data-name="Rectangle 30" transform="translate(836 310)" fill="#100036" stroke="rgba(112,112,112,0)" stroke-width="1">
      <rect width="66" height="3" stroke="none"/>
      <rect x="0.5" y="0.5" width="65" height="2" fill="none"/>
    </g>
    <g id="Rectangle_50" data-name="Rectangle 50" transform="translate(833 319)" fill="#97d2f7" stroke="rgba(112,112,112,0)" stroke-width="1">
      <rect width="72" height="16" stroke="none"/>
      <rect x="0.5" y="0.5" width="71" height="15" fill="none"/>
    </g>
    <g id="Rectangle_51" data-name="Rectangle 51" transform="translate(836 316)" fill="#97d2f7" stroke="rgba(112,112,112,0)" stroke-width="1">
      <rect width="66" height="22" stroke="none"/>
      <rect x="0.5" y="0.5" width="65" height="21" fill="none"/>
    </g>
    <g id="Rectangle_42" data-name="Rectangle 42" transform="translate(836 313)" fill="#b7e0fa" stroke="rgba(112,112,112,0)" stroke-width="1">
      <rect width="66" height="3" stroke="none"/>
      <rect x="0.5" y="0.5" width="65" height="2" fill="none"/>
    </g>
    <g id="Rectangle_43" data-name="Rectangle 43" transform="translate(836 338)" fill="#6a93ad" stroke="rgba(112,112,112,0)" stroke-width="1">
      <rect width="66" height="3" stroke="none"/>
      <rect x="0.5" y="0.5" width="65" height="2" fill="none"/>
    </g>
    <g id="Rectangle_44" data-name="Rectangle 44" transform="translate(830 319)" fill="#b7e0fa" stroke="rgba(112,112,112,0)" stroke-width="1">
      <rect width="3" height="16" stroke="none"/>
      <rect x="0.5" y="0.5" width="2" height="15" fill="none"/>
    </g>
    <g id="Rectangle_49" data-name="Rectangle 49" transform="translate(905 319)" fill="#6a93ad" stroke="rgba(112,112,112,0)" stroke-width="1">
      <rect width="3" height="16" stroke="none"/>
      <rect x="0.5" y="0.5" width="2" height="15" fill="none"/>
    </g>
    <g id="Rectangle_45" data-name="Rectangle 45" transform="translate(833 316)" fill="#b7e0fa" stroke="rgba(112,112,112,0)" stroke-width="1">
      <rect width="3" height="3" stroke="none"/>
      <rect x="0.5" y="0.5" width="2" height="2" fill="none"/>
    </g>
    <g id="Rectangle_46" data-name="Rectangle 46" transform="translate(833 335)" fill="#6a93ad" stroke="rgba(112,112,112,0)" stroke-width="1">
      <rect width="3" height="3" stroke="none"/>
      <rect x="0.5" y="0.5" width="2" height="2" fill="none"/>
    </g>
    <g id="Rectangle_47" data-name="Rectangle 47" transform="translate(902 335)" fill="#6a93ad" stroke="rgba(112,112,112,0)" stroke-width="1">
      <rect width="3" height="3" stroke="none"/>
      <rect x="0.5" y="0.5" width="2" height="2" fill="none"/>
    </g>
    <g id="Rectangle_48" data-name="Rectangle 48" transform="translate(902 316)" fill="#6a93ad" stroke="rgba(112,112,112,0)" stroke-width="1">
      <rect width="3" height="3" stroke="none"/>
      <rect x="0.5" y="0.5" width="2" height="2" fill="none"/>
    </g>
    <g id="Rectangle_31" data-name="Rectangle 31" transform="translate(836 341)" fill="#100036" stroke="rgba(112,112,112,0)" stroke-width="1">
      <rect width="66" height="3" stroke="none"/>
      <rect x="0.5" y="0.5" width="65" height="2" fill="none"/>
    </g>
    <g id="Rectangle_40" data-name="Rectangle 40" transform="translate(827 319)" fill="#100036" stroke="rgba(112,112,112,0)" stroke-width="1">
      <rect width="3" height="16" stroke="none"/>
      <rect x="0.5" y="0.5" width="2" height="15" fill="none"/>
    </g>
    <g id="Rectangle_41" data-name="Rectangle 41" transform="translate(908 319)" fill="#100036" stroke="rgba(112,112,112,0)" stroke-width="1">
      <rect width="3" height="16" stroke="none"/>
      <rect x="0.5" y="0.5" width="2" height="15" fill="none"/>
    </g>
    <g id="Rectangle_32" data-name="Rectangle 32" transform="translate(902 313)" fill="#100036" stroke="rgba(112,112,112,0)" stroke-width="1">
      <rect width="3" height="3" stroke="none"/>
      <rect x="0.5" y="0.5" width="2" height="2" fill="none"/>
    </g>
    <g id="Rectangle_33" data-name="Rectangle 33" transform="translate(833 313)" fill="#100036" stroke="rgba(112,112,112,0)" stroke-width="1">
      <rect width="3" height="3" stroke="none"/>
      <rect x="0.5" y="0.5" width="2" height="2" fill="none"/>
    </g>
    <g id="Rectangle_34" data-name="Rectangle 34" transform="translate(833 338)" fill="#100036" stroke="rgba(112,112,112,0)" stroke-width="1">
      <rect width="3" height="3" stroke="none"/>
      <rect x="0.5" y="0.5" width="2" height="2" fill="none"/>
    </g>
    <g id="Rectangle_35" data-name="Rectangle 35" transform="translate(905 335)" fill="#100036" stroke="rgba(112,112,112,0)" stroke-width="1">
      <rect width="3" height="3" stroke="none"/>
      <rect x="0.5" y="0.5" width="2" height="2" fill="none"/>
    </g>
    <g id="Rectangle_37" data-name="Rectangle 37" transform="translate(905 316)" fill="#100036" stroke="rgba(112,112,112,0)" stroke-width="1">
      <rect width="3" height="3" stroke="none"/>
      <rect x="0.5" y="0.5" width="2" height="2" fill="none"/>
    </g>
    <g id="Rectangle_38" data-name="Rectangle 38" transform="translate(830 316)" fill="#100036" stroke="rgba(112,112,112,0)" stroke-width="1">
      <rect width="3" height="3" stroke="none"/>
      <rect x="0.5" y="0.5" width="2" height="2" fill="none"/>
    </g>
    <g id="Rectangle_39" data-name="Rectangle 39" transform="translate(830 335)" fill="#100036" stroke="rgba(112,112,112,0)" stroke-width="1">
      <rect width="3" height="3" stroke="none"/>
      <rect x="0.5" y="0.5" width="2" height="2" fill="none"/>
    </g>
    <g id="Rectangle_36" data-name="Rectangle 36" transform="translate(902 338)" fill="#100036" stroke="rgba(112,112,112,0)" stroke-width="1">
      <rect width="3" height="3" stroke="none"/>
      <rect x="0.5" y="0.5" width="2" height="2" fill="none"/>
    </g>
    <g id="Rectangle_53" data-name="Rectangle 53" transform="translate(852 323)" fill="#100036" stroke="rgba(112,112,112,0)" stroke-width="1">
      <rect width="3" height="5" stroke="none"/>
      <rect x="0.5" y="0.5" width="2" height="4" fill="none"/>
    </g>
    <g id="Rectangle_55" data-name="Rectangle 55" transform="translate(849 328)" fill="#100036" stroke="rgba(112,112,112,0)" stroke-width="1">
      <rect width="3" height="3" stroke="none"/>
      <rect x="0.5" y="0.5" width="2" height="2" fill="none"/>
    </g>
    <g id="Rectangle_54" data-name="Rectangle 54" transform="translate(849 319)" fill="#100036" stroke="rgba(112,112,112,0)" stroke-width="1">
      <rect width="3" height="4" stroke="none"/>
      <rect x="0.5" y="0.5" width="2" height="3" fill="none"/>
    </g>
    <g id="Rectangle_56" data-name="Rectangle 56" transform="translate(861 332)" fill="#100036" stroke="rgba(112,112,112,0)" stroke-width="1">
      <rect width="6" height="3" stroke="none"/>
      <rect x="0.5" y="0.5" width="5" height="2" fill="none"/>
    </g>
    <g id="Rectangle_58" data-name="Rectangle 58" transform="translate(871 323)" fill="#100036" stroke="rgba(112,112,112,0)" stroke-width="1">
      <rect width="3" height="12" stroke="none"/>
      <rect x="0.5" y="0.5" width="2" height="11" fill="none"/>
    </g>
    <g id="Rectangle_61" data-name="Rectangle 61" transform="translate(877 323)" fill="#100036" stroke="rgba(112,112,112,0)" stroke-width="1">
      <rect width="3" height="12" stroke="none"/>
      <rect x="0.5" y="0.5" width="2" height="11" fill="none"/>
    </g>
    <g id="Rectangle_59" data-name="Rectangle 59" transform="translate(874 329)" fill="#100036" stroke="rgba(112,112,112,0)" stroke-width="1">
      <rect width="3" height="3" stroke="none"/>
      <rect x="0.5" y="0.5" width="2" height="2" fill="none"/>
    </g>
    <g id="Rectangle_63" data-name="Rectangle 63" transform="translate(883 319)" fill="#100036" stroke="rgba(112,112,112,0)" stroke-width="1">
      <rect width="3" height="7" stroke="none"/>
      <rect x="0.5" y="0.5" width="2" height="6" fill="none"/>
    </g>
    <g id="Rectangle_66" data-name="Rectangle 66" transform="translate(886 326)" fill="#100036" stroke="rgba(112,112,112,0)" stroke-width="1">
      <rect width="3" height="3" stroke="none"/>
      <rect x="0.5" y="0.5" width="2" height="2" fill="none"/>
    </g>
    <g id="Rectangle_67" data-name="Rectangle 67" transform="translate(886 332)" fill="#100036" stroke="rgba(112,112,112,0)" stroke-width="1">
      <rect width="3" height="3" stroke="none"/>
      <rect x="0.5" y="0.5" width="2" height="2" fill="none"/>
    </g>
    <g id="Rectangle_65" data-name="Rectangle 65" transform="translate(889 319)" fill="#100036" stroke="rgba(112,112,112,0)" stroke-width="1">
      <rect width="4" height="13" stroke="none"/>
      <rect x="0.5" y="0.5" width="3" height="12" fill="none"/>
    </g>
    <g id="Rectangle_60" data-name="Rectangle 60" transform="translate(874 319)" fill="#100036" stroke="rgba(112,112,112,0)" stroke-width="1">
      <rect width="3" height="4" stroke="none"/>
      <rect x="0.5" y="0.5" width="2" height="3" fill="none"/>
    </g>
    <g id="Rectangle_57" data-name="Rectangle 57" transform="translate(858 319)" fill="#100036" stroke="rgba(112,112,112,0)" stroke-width="1">
      <rect width="3" height="16" stroke="none"/>
      <rect x="0.5" y="0.5" width="2" height="15" fill="none"/>
    </g>
    <g id="Rectangle_52" data-name="Rectangle 52" transform="translate(845 319)" fill="#100036" stroke="rgba(112,112,112,0)" stroke-width="1">
      <rect width="4" height="16" stroke="none"/>
      <rect x="0.5" y="0.5" width="3" height="15" fill="none"/>
    </g>
  </g>
</svg>
