<svg xmlns="http://www.w3.org/2000/svg" width="29.7" height="38.036" viewBox="0 0 29.7 38.036">
  <g id="btn-return-top" transform="translate(-423.65 -208.5)">
    <g id="Union_1" data-name="Union 1" transform="translate(520.651 6196.5)" fill="#f9f8fe">
      <path d="M -80.15086364746094 -5950.46435546875 L -84.15065002441406 -5950.46435546875 L -84.15065002441406 -5978.4287109375 L -84.15065002441406 -5979.6357421875 L -85.00420379638672 -5978.7822265625 L -93.46451568603516 -5970.32177734375 L -96.29344940185547 -5973.15087890625 L -85.33255004882812 -5984.1103515625 L -82.15007781982422 -5987.29296875 L -78.96907806396484 -5984.1103515625 L -68.00806427001953 -5973.15087890625 L -70.83700561523438 -5970.32177734375 L -79.29730987548828 -5978.7822265625 L -80.15086364746094 -5979.6357421875 L -80.15086364746094 -5978.4287109375 L -80.15086364746094 -5950.46435546875 Z" stroke="none"/>
      <path d="M -80.65086364746094 -5950.96435546875 L -80.65086364746094 -5980.8427734375 L -70.83700561523438 -5971.02880859375 L -68.71518707275391 -5973.15087890625 L -82.15015411376953 -5986.58544921875 L -95.58632659912109 -5973.15087890625 L -93.46451568603516 -5971.02880859375 L -83.65065002441406 -5980.8427734375 L -83.65065002441406 -5950.96435546875 L -80.65086364746094 -5950.96435546875 M -79.65086364746094 -5949.96435546875 L -84.65065002441406 -5949.96435546875 L -84.65065002441406 -5978.4287109375 L -93.46451568603516 -5969.61474609375 L -97.00057983398438 -5973.15087890625 L -82.15000915527344 -5988 L -78.61544799804688 -5984.4638671875 L -67.30093383789062 -5973.15087890625 L -70.83700561523438 -5969.61474609375 L -79.65086364746094 -5978.4287109375 L -79.65086364746094 -5949.96435546875 Z" stroke="none" fill="#100036"/>
    </g>
  </g>
</svg>
