<?xml version="1.0" encoding="UTF-8"?>
<svg id="Layer_1" data-name="Layer 1" xmlns="http://www.w3.org/2000/svg" viewBox="0 0 84 34">
  <defs>
    <style>
      .cls-1 {
        fill: none;
      }

      .cls-2 {
        fill: #6a93ad;
      }

      .cls-3 {
        fill: #cbe8fb;
      }

      .cls-4 {
        fill: #100036;
      }

      .cls-5 {
        fill: #97d2f7;
      }

      .cls-6 {
        fill: #6a93ad;
      }
    </style>
  </defs>
  <g id="Rectangle_30" data-name="Rectangle 30">
    <rect class="cls-4" x="9" width="66" height="3"/>
    <rect class="cls-4" x="9.5" y=".5" width="65" height="2"/>
  </g>
  <g id="Rectangle_50" data-name="Rectangle 50">
    <rect class="cls-5" x="6" y="9" width="72" height="16"/>
    <rect class="cls-5" x="6.5" y="9.5" width="71" height="15"/>
  </g>
  <g id="Rectangle_51" data-name="Rectangle 51">
    <rect class="cls-5" x="9" y="6" width="66" height="22"/>
    <rect class="cls-5" x="9.5" y="6.5" width="65" height="21"/>
  </g>
  <g id="Rectangle_42" data-name="Rectangle 42">
    <rect class="cls-3" x="9" y="3" width="66" height="3"/>
    <rect class="cls-3" x="9.5" y="3.5" width="65" height="2"/>
  </g>
  <g id="Rectangle_43" data-name="Rectangle 43">
    <rect class="cls-2" x="9" y="28" width="66" height="3"/>
    <rect class="cls-2" x="9.5" y="28.5" width="65" height="2"/>
  </g>
  <g id="Rectangle_44" data-name="Rectangle 44">
    <rect class="cls-3" x="3" y="9" width="3" height="16"/>
    <rect class="cls-3" x="3.5" y="9.5" width="2" height="15"/>
  </g>
  <g id="Rectangle_49" data-name="Rectangle 49">
    <rect class="cls-2" x="78" y="9" width="3" height="16"/>
    <rect class="cls-2" x="78.5" y="9.5" width="2" height="15"/>
  </g>
  <g id="Rectangle_45" data-name="Rectangle 45">
    <rect class="cls-3" x="6" y="6" width="3" height="3"/>
    <rect class="cls-3" x="6.5" y="6.5" width="2" height="2"/>
  </g>
  <g id="Rectangle_46" data-name="Rectangle 46">
    <rect class="cls-2" x="6" y="25" width="3" height="3"/>
    <rect class="cls-2" x="6.5" y="25.5" width="2" height="2"/>
  </g>
  <g id="Rectangle_47" data-name="Rectangle 47">
    <rect class="cls-6" x="75" y="25" width="3" height="3"/>
    <rect class="cls-1" x="75.5" y="25.5" width="2" height="2"/>
  </g>
  <g id="Rectangle_48" data-name="Rectangle 48">
    <rect class="cls-2" x="75" y="6" width="3" height="3"/>
    <rect class="cls-2" x="75.5" y="6.5" width="2" height="2"/>
  </g>
  <g id="Rectangle_31" data-name="Rectangle 31">
    <rect class="cls-4" x="9" y="31" width="66" height="3"/>
    <rect class="cls-4" x="9.5" y="31.5" width="65" height="2"/>
  </g>
  <g id="Rectangle_40" data-name="Rectangle 40">
    <rect class="cls-4" y="9" width="3" height="16"/>
    <rect class="cls-4" x=".5" y="9.5" width="2" height="15"/>
  </g>
  <g id="Rectangle_41" data-name="Rectangle 41">
    <rect class="cls-4" x="81" y="9" width="3" height="16"/>
    <rect class="cls-4" x="81.5" y="9.5" width="2" height="15"/>
  </g>
  <g id="Rectangle_32" data-name="Rectangle 32">
    <rect class="cls-4" x="75" y="3" width="3" height="3"/>
    <rect class="cls-4" x="75.5" y="3.5" width="2" height="2"/>
  </g>
  <g id="Rectangle_33" data-name="Rectangle 33">
    <rect class="cls-4" x="6" y="3" width="3" height="3"/>
    <rect class="cls-4" x="6.5" y="3.5" width="2" height="2"/>
  </g>
  <g id="Rectangle_34" data-name="Rectangle 34">
    <rect class="cls-4" x="6" y="28" width="3" height="3"/>
    <rect class="cls-4" x="6.5" y="28.5" width="2" height="2"/>
  </g>
  <g id="Rectangle_35" data-name="Rectangle 35">
    <rect class="cls-4" x="78" y="25" width="3" height="3"/>
    <rect class="cls-4" x="78.5" y="25.5" width="2" height="2"/>
  </g>
  <g id="Rectangle_37" data-name="Rectangle 37">
    <rect class="cls-4" x="78" y="6" width="3" height="3"/>
    <rect class="cls-4" x="78.5" y="6.5" width="2" height="2"/>
  </g>
  <g id="Rectangle_38" data-name="Rectangle 38">
    <rect class="cls-4" x="3" y="6" width="3" height="3"/>
    <rect class="cls-4" x="3.5" y="6.5" width="2" height="2"/>
  </g>
  <g id="Rectangle_39" data-name="Rectangle 39">
    <rect class="cls-4" x="3" y="25" width="3" height="3"/>
    <rect class="cls-4" x="3.5" y="25.5" width="2" height="2"/>
  </g>
  <g id="Rectangle_36" data-name="Rectangle 36">
    <rect class="cls-4" x="75" y="28" width="3" height="3"/>
    <rect class="cls-4" x="75.5" y="28.5" width="2" height="2"/>
  </g>
  <g>
    <g id="Rectangle_53" data-name="Rectangle 53">
      <rect class="cls-4" x="21.22" y="13" width="3.72" height="9"/>
      <rect class="cls-4" x="21.83" y="13.9" width="2.48" height="7.2"/>
    </g>
    <g id="Rectangle_55" data-name="Rectangle 55">
      <rect class="cls-4" x="18.22" y="22" width="3" height="3"/>
      <rect class="cls-4" x="18.72" y="22.5" width="2" height="2"/>
    </g>
    <g id="Rectangle_54" data-name="Rectangle 54">
      <rect class="cls-4" x="18.22" y="9" width="3" height="4"/>
      <rect class="cls-4" x="18.72" y="9.5" width="2" height="3"/>
    </g>
    <g id="Rectangle_52" data-name="Rectangle 52">
      <rect class="cls-4" x="14.29" y="9" width="3.92" height="16"/>
      <rect class="cls-4" x="14.78" y="9.5" width="2.94" height="15"/>
    </g>
  </g>
  <g>
    <g id="Rectangle_56" data-name="Rectangle 56">
      <rect class="cls-4" x="31.61" y="22" width="6" height="3"/>
      <rect class="cls-4" x="32.11" y="22.5" width="5" height="2"/>
    </g>
    <g id="Rectangle_57" data-name="Rectangle 57">
      <rect class="cls-4" x="28.61" y="9" width="3" height="16"/>
      <rect class="cls-4" x="29.11" y="9.5" width="2" height="15"/>
    </g>
    <g id="Rectangle_56-2" data-name="Rectangle 56">
      <rect class="cls-4" x="31.61" y="9" width="6" height="3"/>
      <rect class="cls-4" x="32.11" y="9.5" width="5" height="2"/>
    </g>
    <g id="Rectangle_67" data-name="Rectangle 67">
      <rect class="cls-4" x="31.61" y="15.5" width="3" height="3"/>
      <rect class="cls-4" x="32.11" y="16" width="2" height="2"/>
    </g>
  </g>
  <g>
    <g id="Rectangle_56-3" data-name="Rectangle 56">
      <rect class="cls-4" x="61.77" y="8" width="6" height="3"/>
      <rect class="cls-4" x="62.27" y="8.5" width="5" height="2"/>
    </g>
    <g id="Rectangle_63" data-name="Rectangle 63">
      <rect class="cls-4" x="58.77" y="11" width="3" height="11"/>
      <rect class="cls-4" x="59.27" y="11.79" width="2" height="9.43"/>
    </g>
    <g id="Rectangle_56-4" data-name="Rectangle 56">
      <rect class="cls-4" x="61.77" y="22" width="6" height="3"/>
      <rect class="cls-4" x="62.27" y="22.5" width="5" height="2"/>
    </g>
    <g id="Rectangle_63-2" data-name="Rectangle 63">
      <rect class="cls-4" x="67.77" y="11" width="3" height="11"/>
      <rect class="cls-4" x="68.27" y="11.79" width="2" height="9.43"/>
    </g>
  </g>
  <g>
    <g id="Rectangle_58" data-name="Rectangle 58">
      <rect class="cls-4" x="41.84" y="9" width="3" height="16"/>
      <rect class="cls-4" x="42.34" y="9.67" width="2" height="14.67"/>
    </g>
    <g id="Rectangle_61" data-name="Rectangle 61">
      <rect class="cls-4" x="52.09" y="9" width="3" height="16"/>
      <rect class="cls-4" x="52.59" y="9.67" width="2" height="14.67"/>
    </g>
    <g id="Rectangle_60" data-name="Rectangle 60">
      <rect class="cls-4" x="44.84" y="10.9" width="1.5" height="1.5"/>
      <rect class="cls-4" x="45.09" y="11.09" width="1" height="1.12"/>
    </g>
    <g id="Rectangle_60-2" data-name="Rectangle 60">
      <rect class="cls-4" x="44.84" y="12.4" width="3" height="3"/>
      <rect class="cls-4" x="45.34" y="12.77" width="2" height="2.25"/>
    </g>
    <g id="Rectangle_60-3" data-name="Rectangle 60">
      <rect class="cls-4" x="49.09" y="12.4" width="3" height="3"/>
      <rect class="cls-4" x="49.59" y="12.77" width="2" height="2.25"/>
    </g>
    <g id="Rectangle_60-4" data-name="Rectangle 60">
      <rect class="cls-4" x="46.97" y="15.32" width="3" height="3"/>
      <rect class="cls-4" x="47.47" y="15.69" width="2" height="2.25"/>
    </g>
    <g id="Rectangle_60-5" data-name="Rectangle 60">
      <rect class="cls-4" x="50.59" y="10.9" width="1.5" height="1.5"/>
      <rect class="cls-4" x="50.84" y="11.09" width="1" height="1.12"/>
    </g>
  </g>
</svg>