<svg xmlns="http://www.w3.org/2000/svg" width="82" height="34" viewBox="0 0 82 34">
  <g id="btn-play-hoover" transform="translate(-1372 -310)">
    <g id="Rectangle_30" data-name="Rectangle 30" transform="translate(1381 310)" fill="#100036" stroke="rgba(112,112,112,0)" stroke-width="1">
      <rect width="64" height="3" stroke="none"/>
      <rect x="0.5" y="0.5" width="63" height="2" fill="none"/>
    </g>
    <g id="Rectangle_50" data-name="Rectangle 50" transform="translate(1378 319)" fill="#f9f8fe" stroke="rgba(112,112,112,0)" stroke-width="1">
      <rect width="70" height="15" stroke="none"/>
      <rect x="0.5" y="0.5" width="69" height="14" fill="none"/>
    </g>
    <g id="Rectangle_51" data-name="Rectangle 51" transform="translate(1381 316)" fill="#f9f8fe" stroke="rgba(112,112,112,0)" stroke-width="1">
      <rect width="64" height="21" stroke="none"/>
      <rect x="0.5" y="0.5" width="63" height="20" fill="none"/>
    </g>
    <g id="Rectangle_42" data-name="Rectangle 42" transform="translate(1381 313)" fill="#d3d1da" stroke="rgba(112,112,112,0)" stroke-width="1">
      <rect width="64" height="3" stroke="none"/>
      <rect x="0.5" y="0.5" width="63" height="2" fill="none"/>
    </g>
    <g id="Rectangle_43" data-name="Rectangle 43" transform="translate(1381 337)" fill="#a19bb0" stroke="rgba(112,112,112,0)" stroke-width="1">
      <rect width="64" height="4" stroke="none"/>
      <rect x="0.5" y="0.5" width="63" height="3" fill="none"/>
    </g>
    <g id="Rectangle_44" data-name="Rectangle 44" transform="translate(1375 319)" fill="#d3d1da" stroke="rgba(112,112,112,0)" stroke-width="1">
      <rect width="3" height="15" stroke="none"/>
      <rect x="0.5" y="0.5" width="2" height="14" fill="none"/>
    </g>
    <g id="Rectangle_49" data-name="Rectangle 49" transform="translate(1448 319)" fill="#a19bb0" stroke="rgba(112,112,112,0)" stroke-width="1">
      <rect width="3" height="15" stroke="none"/>
      <rect x="0.5" y="0.5" width="2" height="14" fill="none"/>
    </g>
    <g id="Rectangle_45" data-name="Rectangle 45" transform="translate(1378 316)" fill="#d3d1da" stroke="rgba(112,112,112,0)" stroke-width="1">
      <rect width="3" height="3" stroke="none"/>
      <rect x="0.5" y="0.5" width="2" height="2" fill="none"/>
    </g>
    <g id="Rectangle_46" data-name="Rectangle 46" transform="translate(1378 334)" fill="#a19bb0" stroke="rgba(112,112,112,0)" stroke-width="1">
      <rect width="3" height="3" stroke="none"/>
      <rect x="0.5" y="0.5" width="2" height="2" fill="none"/>
    </g>
    <g id="Rectangle_47" data-name="Rectangle 47" transform="translate(1445 334)" fill="#a19bb0" stroke="rgba(112,112,112,0)" stroke-width="1">
      <rect width="3" height="3" stroke="none"/>
      <rect x="0.5" y="0.5" width="2" height="2" fill="none"/>
    </g>
    <g id="Rectangle_48" data-name="Rectangle 48" transform="translate(1445 316)" fill="#a19bb0" stroke="rgba(112,112,112,0)" stroke-width="1">
      <rect width="3" height="3" stroke="none"/>
      <rect x="0.5" y="0.5" width="2" height="2" fill="none"/>
    </g>
    <g id="Rectangle_31" data-name="Rectangle 31" transform="translate(1381 341)" fill="#100036" stroke="rgba(112,112,112,0)" stroke-width="1">
      <rect width="64" height="3" stroke="none"/>
      <rect x="0.5" y="0.5" width="63" height="2" fill="none"/>
    </g>
    <g id="Rectangle_40" data-name="Rectangle 40" transform="translate(1372 319)" fill="#100036" stroke="rgba(112,112,112,0)" stroke-width="1">
      <rect width="3" height="15" stroke="none"/>
      <rect x="0.5" y="0.5" width="2" height="14" fill="none"/>
    </g>
    <g id="Rectangle_41" data-name="Rectangle 41" transform="translate(1451 319)" fill="#100036" stroke="rgba(112,112,112,0)" stroke-width="1">
      <rect width="3" height="15" stroke="none"/>
      <rect x="0.5" y="0.5" width="2" height="14" fill="none"/>
    </g>
    <g id="Rectangle_32" data-name="Rectangle 32" transform="translate(1445 313)" fill="#100036" stroke="rgba(112,112,112,0)" stroke-width="1">
      <rect width="3" height="3" stroke="none"/>
      <rect x="0.5" y="0.5" width="2" height="2" fill="none"/>
    </g>
    <g id="Rectangle_33" data-name="Rectangle 33" transform="translate(1378 313)" fill="#100036" stroke="rgba(112,112,112,0)" stroke-width="1">
      <rect width="3" height="3" stroke="none"/>
      <rect x="0.5" y="0.5" width="2" height="2" fill="none"/>
    </g>
    <g id="Rectangle_34" data-name="Rectangle 34" transform="translate(1378 337)" fill="#100036" stroke="rgba(112,112,112,0)" stroke-width="1">
      <rect width="3" height="4" stroke="none"/>
      <rect x="0.5" y="0.5" width="2" height="3" fill="none"/>
    </g>
    <g id="Rectangle_35" data-name="Rectangle 35" transform="translate(1448 334)" fill="#100036" stroke="rgba(112,112,112,0)" stroke-width="1">
      <rect width="3" height="3" stroke="none"/>
      <rect x="0.5" y="0.5" width="2" height="2" fill="none"/>
    </g>
    <g id="Rectangle_37" data-name="Rectangle 37" transform="translate(1448 316)" fill="#100036" stroke="rgba(112,112,112,0)" stroke-width="1">
      <rect width="3" height="3" stroke="none"/>
      <rect x="0.5" y="0.5" width="2" height="2" fill="none"/>
    </g>
    <g id="Rectangle_38" data-name="Rectangle 38" transform="translate(1375 316)" fill="#100036" stroke="rgba(112,112,112,0)" stroke-width="1">
      <rect width="3" height="3" stroke="none"/>
      <rect x="0.5" y="0.5" width="2" height="2" fill="none"/>
    </g>
    <g id="Rectangle_39" data-name="Rectangle 39" transform="translate(1375 334)" fill="#100036" stroke="rgba(112,112,112,0)" stroke-width="1">
      <rect width="3" height="3" stroke="none"/>
      <rect x="0.5" y="0.5" width="2" height="2" fill="none"/>
    </g>
    <g id="Rectangle_36" data-name="Rectangle 36" transform="translate(1445 337)" fill="#100036" stroke="rgba(112,112,112,0)" stroke-width="1">
      <rect width="3" height="4" stroke="none"/>
      <rect x="0.5" y="0.5" width="2" height="3" fill="none"/>
    </g>
    <g id="Rectangle_53" data-name="Rectangle 53" transform="translate(1396 322)" fill="#100036" stroke="rgba(112,112,112,0)" stroke-width="1">
      <rect width="3" height="5" stroke="none"/>
      <rect x="0.5" y="0.5" width="2" height="4" fill="none"/>
    </g>
    <g id="Rectangle_55" data-name="Rectangle 55" transform="translate(1393 327)" fill="#100036" stroke="rgba(112,112,112,0)" stroke-width="1">
      <rect width="3" height="3" stroke="none"/>
      <rect x="0.5" y="0.5" width="2" height="2" fill="none"/>
    </g>
    <g id="Rectangle_54" data-name="Rectangle 54" transform="translate(1393 319)" fill="#100036" stroke="rgba(112,112,112,0)" stroke-width="1">
      <rect width="3" height="3" stroke="none"/>
      <rect x="0.5" y="0.5" width="2" height="2" fill="none"/>
    </g>
    <g id="Rectangle_56" data-name="Rectangle 56" transform="translate(1405 331)" fill="#100036" stroke="rgba(112,112,112,0)" stroke-width="1">
      <rect width="6" height="3" stroke="none"/>
      <rect x="0.5" y="0.5" width="5" height="2" fill="none"/>
    </g>
    <g id="Rectangle_58" data-name="Rectangle 58" transform="translate(1415 322)" fill="#100036" stroke="rgba(112,112,112,0)" stroke-width="1">
      <rect width="3" height="12" stroke="none"/>
      <rect x="0.5" y="0.5" width="2" height="11" fill="none"/>
    </g>
    <g id="Rectangle_61" data-name="Rectangle 61" transform="translate(1421 322)" fill="#100036" stroke="rgba(112,112,112,0)" stroke-width="1">
      <rect width="3" height="12" stroke="none"/>
      <rect x="0.5" y="0.5" width="2" height="11" fill="none"/>
    </g>
    <g id="Rectangle_59" data-name="Rectangle 59" transform="translate(1418 328)" fill="#100036" stroke="rgba(112,112,112,0)" stroke-width="1">
      <rect width="3" height="3" stroke="none"/>
      <rect x="0.5" y="0.5" width="2" height="2" fill="none"/>
    </g>
    <g id="Rectangle_63" data-name="Rectangle 63" transform="translate(1427 319)" fill="#100036" stroke="rgba(112,112,112,0)" stroke-width="1">
      <rect width="3" height="6" stroke="none"/>
      <rect x="0.5" y="0.5" width="2" height="5" fill="none"/>
    </g>
    <g id="Rectangle_66" data-name="Rectangle 66" transform="translate(1430 325)" fill="#100036" stroke="rgba(112,112,112,0)" stroke-width="1">
      <rect width="3" height="3" stroke="none"/>
      <rect x="0.5" y="0.5" width="2" height="2" fill="none"/>
    </g>
    <g id="Rectangle_67" data-name="Rectangle 67" transform="translate(1430 331)" fill="#100036" stroke="rgba(112,112,112,0)" stroke-width="1">
      <rect width="3" height="3" stroke="none"/>
      <rect x="0.5" y="0.5" width="2" height="2" fill="none"/>
    </g>
    <g id="Rectangle_65" data-name="Rectangle 65" transform="translate(1433 319)" fill="#100036" stroke="rgba(112,112,112,0)" stroke-width="1">
      <rect width="3" height="12" stroke="none"/>
      <rect x="0.5" y="0.5" width="2" height="11" fill="none"/>
    </g>
    <g id="Rectangle_60" data-name="Rectangle 60" transform="translate(1418 319)" fill="#100036" stroke="rgba(112,112,112,0)" stroke-width="1">
      <rect width="3" height="3" stroke="none"/>
      <rect x="0.5" y="0.5" width="2" height="2" fill="none"/>
    </g>
    <g id="Rectangle_57" data-name="Rectangle 57" transform="translate(1402 319)" fill="#100036" stroke="rgba(112,112,112,0)" stroke-width="1">
      <rect width="3" height="15" stroke="none"/>
      <rect x="0.5" y="0.5" width="2" height="14" fill="none"/>
    </g>
    <g id="Rectangle_52" data-name="Rectangle 52" transform="translate(1390 319)" fill="#100036" stroke="rgba(112,112,112,0)" stroke-width="1">
      <rect width="3" height="15" stroke="none"/>
      <rect x="0.5" y="0.5" width="2" height="14" fill="none"/>
    </g>
  </g>
</svg>
