<svg xmlns="http://www.w3.org/2000/svg" width="578.188" height="521.502" viewBox="0 0 578.188 521.502">
  <g id="Groupe_2" data-name="Groupe 2" transform="translate(-1024.996 -292.865)">
    <g id="Tracé_4" data-name="Tracé 4" transform="translate(1103.379 419)" fill="#feb327">
      <path d="M197.684,0C306.862,0,395.368,88.506,395.368,197.684S306.862,395.368,197.684,395.368,0,306.862,0,197.684,88.506,0,197.684,0Z" stroke="none"/>
      <path d="M 197.6839599609375 1 C 184.3385620117188 1 171.0018157958984 2.344451904296875 158.0442047119141 4.9959716796875 C 145.4164581298828 7.5799560546875 132.995361328125 11.4356689453125 121.1260070800781 16.45602416992188 C 109.4718627929688 21.38525390625 98.23141479492188 27.48641967773438 87.71676635742188 34.5899658203125 C 77.30181884765625 41.62615966796875 67.50799560546875 49.70681762695312 58.607421875 58.607421875 C 49.70681762695312 67.50799560546875 41.62615966796875 77.30181884765625 34.5899658203125 87.71676635742188 C 27.48641967773438 98.23141479492188 21.38525390625 109.4718627929688 16.45602416992188 121.1260070800781 C 11.4356689453125 132.995361328125 7.5799560546875 145.4164581298828 4.9959716796875 158.0442047119141 C 2.344451904296875 171.0018157958984 1 184.3385620117188 1 197.6839599609375 C 1 211.0293579101562 2.344451904296875 224.3661041259766 4.9959716796875 237.3237152099609 C 7.5799560546875 249.9514617919922 11.4356689453125 262.37255859375 16.45602416992188 274.2419128417969 C 21.38525390625 285.89599609375 27.48641967773438 297.1365051269531 34.5899658203125 307.651123046875 C 41.62615966796875 318.0661010742188 49.70681762695312 327.8599243164062 58.607421875 336.760498046875 C 67.50799560546875 345.6611022949219 77.30181884765625 353.7417602539062 87.71676635742188 360.7779541015625 C 98.23141479492188 367.8815002441406 109.4718627929688 373.982666015625 121.1260070800781 378.9118957519531 C 132.995361328125 383.9322509765625 145.4164581298828 387.7879638671875 158.0442047119141 390.3719482421875 C 171.0018157958984 393.0234680175781 184.3385620117188 394.367919921875 197.6839599609375 394.367919921875 C 211.0293579101562 394.367919921875 224.3661041259766 393.0234680175781 237.3237152099609 390.3719482421875 C 249.9514617919922 387.7879638671875 262.37255859375 383.9322509765625 274.2419128417969 378.9118957519531 C 285.89599609375 373.982666015625 297.1365051269531 367.8815002441406 307.651123046875 360.7779541015625 C 318.0661010742188 353.7417602539062 327.8599243164062 345.6611022949219 336.760498046875 336.760498046875 C 345.6611022949219 327.8599243164062 353.7417602539062 318.0661010742188 360.7779541015625 307.651123046875 C 367.8815002441406 297.1365051269531 373.982666015625 285.89599609375 378.9118957519531 274.2419128417969 C 383.9322509765625 262.37255859375 387.7879638671875 249.9514617919922 390.3719482421875 237.3237152099609 C 393.0234680175781 224.3661041259766 394.367919921875 211.0293579101562 394.367919921875 197.6839599609375 C 394.367919921875 184.3385620117188 393.0234680175781 171.0018157958984 390.3719482421875 158.0442047119141 C 387.7879638671875 145.4164581298828 383.9322509765625 132.995361328125 378.9118957519531 121.1260070800781 C 373.982666015625 109.4718627929688 367.8815002441406 98.23141479492188 360.7779541015625 87.71676635742188 C 353.7417602539062 77.30181884765625 345.6611022949219 67.50799560546875 336.760498046875 58.607421875 C 327.8599243164062 49.70681762695312 318.0661010742188 41.62615966796875 307.651123046875 34.5899658203125 C 297.1365051269531 27.48641967773438 285.89599609375 21.38525390625 274.2419128417969 16.45602416992188 C 262.37255859375 11.4356689453125 249.9514617919922 7.5799560546875 237.3237152099609 4.9959716796875 C 224.3661041259766 2.344451904296875 211.0293579101562 1 197.6839599609375 1 M 197.6839599609375 0 C 306.8617553710938 0 395.367919921875 88.506103515625 395.367919921875 197.6839599609375 C 395.367919921875 306.8617553710938 306.8617553710938 395.367919921875 197.6839599609375 395.367919921875 C 88.506103515625 395.367919921875 0 306.8617553710938 0 197.6839599609375 C 0 88.506103515625 88.506103515625 0 197.6839599609375 0 Z" stroke="none" fill="rgba(112,112,112,0)"/>
    </g>
    <g id="Tracé_6" data-name="Tracé 6" transform="translate(1024.996 314.311)" fill="#feb327">
      <path d="M61.876,0A61.876,61.876,0,1,1,0,61.876,61.876,61.876,0,0,1,61.876,0Z" stroke="none"/>
      <path d="M 61.8756103515625 0.9999923706054688 C 53.65701293945312 0.9999923706054688 45.68477630615234 2.609390258789062 38.18037414550781 5.783493041992188 C 34.57346343994141 7.309097290039062 31.09451293945312 9.197410583496094 27.84015655517578 11.39599609375 C 24.61647796630859 13.57387542724609 21.58504486083984 16.07504272460938 18.83003997802734 18.83003997802734 C 16.07504272460938 21.58504486083984 13.57387542724609 24.61647796630859 11.39599609375 27.84015655517578 C 9.197410583496094 31.09451293945312 7.309097290039062 34.57346343994141 5.783493041992188 38.18037414550781 C 2.609390258789062 45.68477630615234 0.9999923706054688 53.65701293945312 0.9999923706054688 61.8756103515625 C 0.9999923706054688 70.09420776367188 2.609390258789062 78.06642150878906 5.783493041992188 85.57083129882812 C 7.309097290039062 89.17774200439453 9.197410583496094 92.65669250488281 11.39599609375 95.91104125976562 C 13.57387542724609 99.13472747802734 16.07504272460938 102.1661605834961 18.83003997802734 104.9211578369141 C 21.58504486083984 107.6761627197266 24.61647796630859 110.1773300170898 27.84015655517578 112.3552093505859 C 31.09451293945312 114.5537948608398 34.57346343994141 116.4421081542969 38.18037414550781 117.9677124023438 C 45.68477630615234 121.1418075561523 53.65701293945312 122.7512130737305 61.8756103515625 122.7512130737305 C 70.09420776367188 122.7512130737305 78.06642150878906 121.1418075561523 85.57083129882812 117.9677124023438 C 89.17774200439453 116.4421081542969 92.65669250488281 114.5537948608398 95.91104125976562 112.3552093505859 C 99.13472747802734 110.1773300170898 102.1661605834961 107.6761627197266 104.9211578369141 104.9211578369141 C 107.6761627197266 102.1661605834961 110.1773300170898 99.13472747802734 112.3552093505859 95.91104125976562 C 114.5537948608398 92.65669250488281 116.4421081542969 89.17774200439453 117.9677124023438 85.57083129882812 C 121.1418075561523 78.06642150878906 122.7512130737305 70.09420776367188 122.7512130737305 61.8756103515625 C 122.7512130737305 53.65701293945312 121.1418075561523 45.68477630615234 117.9677124023438 38.18037414550781 C 116.4421081542969 34.57346343994141 114.5537948608398 31.09451293945312 112.3552093505859 27.84015655517578 C 110.1773300170898 24.61647796630859 107.6761627197266 21.58504486083984 104.9211578369141 18.83003997802734 C 102.1661605834961 16.07504272460938 99.13472747802734 13.57387542724609 95.91104125976562 11.39599609375 C 92.65669250488281 9.197410583496094 89.17774200439453 7.309097290039062 85.57083129882812 5.783493041992188 C 78.06642150878906 2.609390258789062 70.09420776367188 0.9999923706054688 61.8756103515625 0.9999923706054688 M 61.8756103515625 -7.62939453125e-06 C 96.04856109619141 -7.62939453125e-06 123.7512130737305 27.70264434814453 123.7512130737305 61.8756103515625 C 123.7512130737305 96.04856109619141 96.04856109619141 123.7512130737305 61.8756103515625 123.7512130737305 C 27.70264434814453 123.7512130737305 -7.62939453125e-06 96.04856109619141 -7.62939453125e-06 61.8756103515625 C -7.62939453125e-06 27.70264434814453 27.70264434814453 -7.62939453125e-06 61.8756103515625 -7.62939453125e-06 Z" stroke="none" fill="rgba(112,112,112,0)"/>
    </g>
    <g id="Tracé_7" data-name="Tracé 7" transform="translate(1457.689 312.265)" fill="#feb327">
      <path d="M62.9,0A62.9,62.9,0,1,1,0,62.9,62.9,62.9,0,0,1,62.9,0Z" stroke="none"/>
      <path d="M 62.89817810058594 1.000007629394531 C 54.54154205322266 1.000007629394531 46.43539428710938 2.636436462402344 38.804931640625 5.863853454589844 C 35.13741302490234 7.415069580078125 31.60002899169922 9.335121154785156 28.29100799560547 11.57064056396484 C 25.01317596435547 13.78510284423828 21.93083190917969 16.32828521728516 19.12956237792969 19.12955474853516 C 16.32829284667969 21.93082427978516 13.78509521484375 25.01316833496094 11.57064819335938 28.29100799560547 C 9.335113525390625 31.60000610351562 7.415077209472656 35.13740539550781 5.863845825195312 38.80490875244141 C 2.636428833007812 46.43537139892578 0.9999923706054688 54.54151916503906 0.9999923706054688 62.89815521240234 C 0.9999923706054688 71.25479125976562 2.636428833007812 79.36092376708984 5.863845825195312 86.99140930175781 C 7.415077209472656 90.65890502929688 9.335113525390625 94.1962890625 11.57064819335938 97.50530242919922 C 13.78509521484375 100.7831192016602 16.32829284667969 103.8654861450195 19.12956237792969 106.6667556762695 C 21.93083190917969 109.468017578125 25.01317596435547 112.0112075805664 28.29100799560547 114.2256698608398 C 31.60002899169922 116.4611892700195 35.13741302490234 118.3812255859375 38.804931640625 119.9324569702148 C 46.43539428710938 123.1598739624023 54.54154205322266 124.7963027954102 62.89817810058594 124.7963027954102 C 71.25480651855469 124.7963027954102 79.3609619140625 123.1598739624023 86.99142456054688 119.9324569702148 C 90.65894317626953 118.3812255859375 94.19632720947266 116.4611892700195 97.50534057617188 114.2256698608398 C 100.7831802368164 112.0112075805664 103.8655242919922 109.468017578125 106.6667938232422 106.6667556762695 C 109.4680633544922 103.8654861450195 112.0112609863281 100.7831192016602 114.2257080078125 97.50530242919922 C 116.4612426757812 94.1962890625 118.3812789916992 90.65890502929688 119.9325103759766 86.99140930175781 C 123.1599273681641 79.36092376708984 124.7963638305664 71.25479125976562 124.7963638305664 62.89815521240234 C 124.7963638305664 54.54151916503906 123.1599273681641 46.43537139892578 119.9325103759766 38.80490875244141 C 118.3812789916992 35.13740539550781 116.4612426757812 31.60000610351562 114.2257080078125 28.29100799560547 C 112.0112609863281 25.01316833496094 109.4680633544922 21.93082427978516 106.6667938232422 19.12955474853516 C 103.8655242919922 16.32828521728516 100.7831802368164 13.78510284423828 97.50534057617188 11.57064056396484 C 94.19632720947266 9.335121154785156 90.65894317626953 7.415069580078125 86.99142456054688 5.863853454589844 C 79.3609619140625 2.636436462402344 71.25480651855469 1.000007629394531 62.89817810058594 1.000007629394531 M 62.89817810058594 7.62939453125e-06 C 97.63587951660156 7.62939453125e-06 125.7963638305664 28.16045379638672 125.7963638305664 62.89815521240234 C 125.7963638305664 97.63584136962891 97.63587951660156 125.7963027954102 62.89817810058594 125.7963027954102 C 28.16047668457031 125.7963027954102 -7.62939453125e-06 97.63584136962891 -7.62939453125e-06 62.89815521240234 C -7.62939453125e-06 28.16045379638672 28.16047668457031 7.62939453125e-06 62.89817810058594 7.62939453125e-06 Z" stroke="none" fill="rgba(112,112,112,0)"/>
    </g>
    <path id="Polygone_3" data-name="Polygone 3" d="M39.5,0,79,66H0Z" transform="translate(1199.097 521.031)" fill="#fc0082"/>
    <g id="Tracé_8" data-name="Tracé 8" transform="translate(1367.71 522.031) rotate(45)" fill="#216bdb">
      <path d="M0,0H52.99V52.99H0Z" stroke="none"/>
      <path d="M 0.9999961853027344 0.9999961853027344 L 0.9999961853027344 51.98958587646484 L 51.98958587646484 51.98958587646484 L 51.98958587646484 0.9999961853027344 L 0.9999961853027344 0.9999961853027344 M -3.814697265625e-06 -3.814697265625e-06 L 52.98958587646484 -3.814697265625e-06 L 52.98958587646484 52.98958587646484 L -3.814697265625e-06 52.98958587646484 L -3.814697265625e-06 -3.814697265625e-06 Z" stroke="none" fill="rgba(112,112,112,0)"/>
    </g>
    <g id="Tracé_9" data-name="Tracé 9" transform="translate(1203.097 644.738)" fill="#f7d493">
      <path d="M97.966,0c54.105,0,97.966,30.938,97.966,69.1s-43.861,69.1-97.966,69.1S0,107.266,0,69.1,43.861,0,97.966,0Z" stroke="none"/>
      <path d="M 97.96588134765625 1 C 84.83743286132812 1 72.10392761230469 2.81298828125 60.11903381347656 6.388626098632812 C 54.36344909667969 8.10577392578125 48.81318664550781 10.23064422607422 43.62240600585938 12.7042236328125 C 38.48588562011719 15.15196990966797 33.65701293945312 17.96212005615234 29.26992797851562 21.05659484863281 C 24.88917541503906 24.14664459228516 20.9134521484375 27.54524230957031 17.45323181152344 31.15799713134766 C 13.96658325195312 34.79831695556641 10.97320556640625 38.68784332275391 8.5562744140625 42.71849822998047 C 6.099853515625 46.81499481201172 4.213882446289062 51.09982299804688 2.950729370117188 55.45394897460938 C 1.656326293945312 59.91579437255859 1 64.50759887695312 1 69.10174560546875 C 1 73.69589233398438 1.656326293945312 78.28769683837891 2.950729370117188 82.74954223632812 C 4.213882446289062 87.10366821289062 6.099853515625 91.38849639892578 8.5562744140625 95.48500061035156 C 10.97320556640625 99.51564025878906 13.96658325195312 103.4051666259766 17.45323181152344 107.0454940795898 C 20.9134521484375 110.6582489013672 24.88917541503906 114.0568466186523 29.26992797851562 117.1468963623047 C 33.65701293945312 120.2413711547852 38.48588562011719 123.0515213012695 43.62240600585938 125.499267578125 C 48.81318664550781 127.9728469848633 54.36344909667969 130.0977172851562 60.11903381347656 131.8148651123047 C 72.10392761230469 135.3905029296875 84.83743286132812 137.2034912109375 97.96588134765625 137.2034912109375 C 111.0943069458008 137.2034912109375 123.8278350830078 135.3905029296875 135.8127288818359 131.8148651123047 C 141.5682983398438 130.0977172851562 147.1185607910156 127.9728469848633 152.309326171875 125.499267578125 C 157.4458770751953 123.0515213012695 162.2747497558594 120.2413711547852 166.6618041992188 117.1468963623047 C 171.0425872802734 114.0568466186523 175.018310546875 110.6582489013672 178.4785308837891 107.0454940795898 C 181.9651794433594 103.4051666259766 184.9585571289062 99.51564025878906 187.37548828125 95.48500061035156 C 189.8319091796875 91.38849639892578 191.7178802490234 87.10366821289062 192.9810333251953 82.74954223632812 C 194.2754364013672 78.28769683837891 194.9317626953125 73.69589233398438 194.9317626953125 69.10174560546875 C 194.9317626953125 64.50759887695312 194.2754364013672 59.91579437255859 192.9810333251953 55.45394897460938 C 191.7178802490234 51.09982299804688 189.8319091796875 46.81499481201172 187.37548828125 42.71849822998047 C 184.9585571289062 38.68784332275391 181.9651794433594 34.79831695556641 178.4785308837891 31.15799713134766 C 175.018310546875 27.54524230957031 171.0425872802734 24.14664459228516 166.6618041992188 21.05659484863281 C 162.2747497558594 17.96212005615234 157.4458770751953 15.15196990966797 152.309326171875 12.7042236328125 C 147.1185607910156 10.23064422607422 141.5682983398438 8.10577392578125 135.8127288818359 6.388626098632812 C 123.8278350830078 2.81298828125 111.0943069458008 1 97.96588134765625 1 M 97.96588134765625 0 C 152.0709228515625 0 195.9317626953125 30.93789672851562 195.9317626953125 69.10174560546875 C 195.9317626953125 107.2655944824219 152.0709228515625 138.2034912109375 97.96588134765625 138.2034912109375 C 43.86080932617188 138.2034912109375 0 107.2655944824219 0 69.10174560546875 C 0 30.93789672851562 43.86080932617188 0 97.96588134765625 0 Z" stroke="none" fill="rgba(112,112,112,0)"/>
    </g>
    <g id="Tracé_10" data-name="Tracé 10" transform="translate(1301.063 644.737) rotate(45)" fill="#216bdb">
      <path d="M0,0H59.841V59.841H0Z" stroke="none"/>
      <path d="M 0.9999961853027344 0.9999961853027344 L 0.9999961853027344 58.84076690673828 L 58.84076690673828 58.84076690673828 L 58.84076690673828 0.9999961853027344 L 0.9999961853027344 0.9999961853027344 M -3.814697265625e-06 -3.814697265625e-06 L 59.84076690673828 -3.814697265625e-06 L 59.84076690673828 59.84076690673828 L -3.814697265625e-06 59.84076690673828 L -3.814697265625e-06 -3.814697265625e-06 Z" stroke="none" fill="rgba(112,112,112,0)"/>
    </g>
    <path id="Polygone_4" data-name="Polygone 4" d="M31.662,0,63.324,52.77H0Z" transform="translate(1269.401 696.229)" fill="#fc0082"/>
    <path id="Polygone_5" data-name="Polygone 5" d="M54.97,0l54.97,91.616H0Z" transform="translate(1518.965 292.865) rotate(40)" fill="#fc0082"/>
    <g id="Tracé_11" data-name="Tracé 11" transform="translate(1086.871 314.311) rotate(45)" fill="#216bdb">
      <path d="M0,0H87.505V87.505H0Z" stroke="none"/>
      <path d="M 0.9999923706054688 0.9999923706054688 L 0.9999923706054688 86.50534057617188 L 86.50534057617188 86.50534057617188 L 86.50534057617188 0.9999923706054688 L 0.9999923706054688 0.9999923706054688 M -7.62939453125e-06 -7.62939453125e-06 L 87.50534057617188 -7.62939453125e-06 L 87.50534057617188 87.50534057617188 L -7.62939453125e-06 87.50534057617188 L -7.62939453125e-06 -7.62939453125e-06 Z" stroke="none" fill="rgba(112,112,112,0)"/>
    </g>
  </g>
</svg>
