<?xml version="1.0" encoding="UTF-8"?>
<svg id="Layer_1" data-name="Layer 1" xmlns="http://www.w3.org/2000/svg" viewBox="0 0 558.49 502.1">
  <defs>
    <style>
      .cls-1 {
        fill: #fc0082;
      }

      .cls-2 {
        fill: #f7d493;
      }

      .cls-3 {
        fill: #feb327;
      }

      .cls-4 {
        fill: #216bdb;
      }
    </style>
  </defs>
  <g id="Groupe_2" data-name="Groupe 2">
    <g id="Tracé_4" data-name="Tracé 4">
      <path class="cls-3" d="M276.07,106.73c109.18,0,197.68,88.51,197.68,197.68s-88.51,197.68-197.68,197.68-197.68-88.51-197.68-197.68,88.51-197.68,197.68-197.68Z"/>
      <path class="cls-3" d="M276.07,107.73c-13.35,0-26.68,1.34-39.64,4-12.63,2.58-25.05,6.44-36.92,11.46-11.65,4.93-22.89,11.03-33.41,18.13-10.41,7.04-20.21,15.12-29.11,24.02-8.9,8.9-16.98,18.69-24.02,29.11-7.1,10.51-13.2,21.76-18.13,33.41-5.02,11.87-8.88,24.29-11.46,36.92-2.65,12.96-4,26.29-4,39.64s1.34,26.68,4,39.64c2.58,12.63,6.44,25.05,11.46,36.92,4.93,11.65,11.03,22.89,18.13,33.41,7.04,10.41,15.12,20.21,24.02,29.11,8.9,8.9,18.69,16.98,29.11,24.02,10.51,7.1,21.76,13.2,33.41,18.13,11.87,5.02,24.29,8.88,36.92,11.46,12.96,2.65,26.29,4,39.64,4s26.68-1.34,39.64-4c12.63-2.58,25.05-6.44,36.92-11.46,11.65-4.93,22.89-11.03,33.41-18.13,10.41-7.04,20.21-15.12,29.11-24.02,8.9-8.9,16.98-18.69,24.02-29.11,7.1-10.51,13.2-21.76,18.13-33.41,5.02-11.87,8.88-24.29,11.46-36.92,2.65-12.96,4-26.29,4-39.64s-1.34-26.68-4-39.64c-2.58-12.63-6.44-25.05-11.46-36.92-4.93-11.65-11.03-22.89-18.13-33.41-7.04-10.41-15.12-20.21-24.02-29.11-8.9-8.9-18.69-16.98-29.11-24.02-10.51-7.1-21.76-13.2-33.41-18.13-11.87-5.02-24.29-8.88-36.92-11.46-12.96-2.65-26.29-4-39.64-4M276.07,106.73c109.18,0,197.68,88.51,197.68,197.68s-88.51,197.68-197.68,197.68-197.68-88.51-197.68-197.68,88.51-197.68,197.68-197.68Z"/>
    </g>
    <g id="Tracé_6" data-name="Tracé 6">
      <path class="cls-3" d="M61.88,2.05c34.17,0,61.88,27.7,61.88,61.88s-27.7,61.88-61.88,61.88S0,98.1,0,63.92h0C0,29.75,27.7,2.05,61.88,2.05Z"/>
      <path class="cls-3" d="M61.88,3.05c-8.22,0-16.19,1.61-23.7,4.78-3.61,1.53-7.09,3.41-10.34,5.61-3.22,2.18-6.26,4.68-9.01,7.43-2.75,2.76-5.26,5.79-7.43,9.01-2.2,3.25-4.09,6.73-5.61,10.34-3.17,7.5-4.78,15.48-4.78,23.7s1.61,16.19,4.78,23.7c1.53,3.61,3.41,7.09,5.61,10.34,2.18,3.22,4.68,6.26,7.43,9.01s5.79,5.26,9.01,7.43c3.25,2.2,6.73,4.09,10.34,5.61,7.5,3.17,15.48,4.78,23.7,4.78s16.19-1.61,23.7-4.78c3.61-1.53,7.09-3.41,10.34-5.61,3.22-2.18,6.26-4.68,9.01-7.43,2.76-2.75,5.26-5.79,7.43-9.01,2.2-3.25,4.09-6.73,5.61-10.34,3.17-7.5,4.78-15.48,4.78-23.7s-1.61-16.19-4.78-23.7c-1.53-3.61-3.41-7.09-5.61-10.34-2.18-3.22-4.68-6.26-7.43-9.01s-5.79-5.26-9.01-7.43c-3.25-2.2-6.73-4.09-10.34-5.61-7.5-3.17-15.48-4.78-23.7-4.78M61.88,2.05c34.17,0,61.88,27.7,61.88,61.88s-27.7,61.88-61.88,61.88S0,98.09,0,63.92,27.7,2.05,61.88,2.05Z"/>
    </g>
    <g id="Tracé_7" data-name="Tracé 7">
      <path class="cls-3" d="M495.59,0C530.33,0,558.49,28.16,558.49,62.9s-28.16,62.9-62.9,62.9-62.9-28.16-62.9-62.9c0-34.74,28.16-62.9,62.9-62.9h0Z"/>
      <path class="cls-3" d="M495.59,1c-8.36,0-16.46,1.64-24.09,4.86-3.67,1.55-7.2,3.47-10.51,5.71-3.28,2.21-6.36,4.76-9.16,7.56s-5.34,5.88-7.56,9.16c-2.24,3.31-4.16,6.85-5.71,10.51-3.23,7.63-4.86,15.74-4.86,24.09s1.64,16.46,4.86,24.09c1.55,3.67,3.47,7.2,5.71,10.51,2.21,3.28,4.76,6.36,7.56,9.16,2.8,2.8,5.88,5.34,9.16,7.56,3.31,2.24,6.85,4.16,10.51,5.71,7.63,3.23,15.74,4.86,24.09,4.86s16.46-1.64,24.09-4.86c3.67-1.55,7.2-3.47,10.51-5.71,3.28-2.21,6.36-4.76,9.16-7.56,2.8-2.8,5.34-5.88,7.56-9.16,2.24-3.31,4.16-6.85,5.71-10.51,3.23-7.63,4.86-15.74,4.86-24.09s-1.64-16.46-4.86-24.09c-1.55-3.67-3.47-7.2-5.71-10.51-2.21-3.28-4.76-6.36-7.56-9.16s-5.88-5.34-9.16-7.56c-3.31-2.24-6.85-4.16-10.51-5.71-7.63-3.23-15.74-4.86-24.09-4.86M495.59,0C530.33,0,558.49,28.16,558.49,62.9s-28.16,62.9-62.9,62.9-62.9-28.16-62.9-62.9S460.85,0,495.59,0Z"/>
    </g>
    <path id="Polygone_3" data-name="Polygone 3" class="cls-1" d="M213.6,208.77l39.5,66h-79l39.5-66Z"/>
    <g id="Tracé_8" data-name="Tracé 8">
      <path class="cls-4" d="M342.71,209.77l37.47,37.47-37.47,37.47-37.47-37.47,37.47-37.47Z"/>
      <path class="cls-4" d="M342.71,211.18l-36.06,36.06,36.06,36.06,36.06-36.06-36.06-36.06M342.71,209.77l37.47,37.47-37.47,37.47-37.47-37.47,37.47-37.47Z"/>
    </g>
    <g id="Tracé_9" data-name="Tracé 9">
      <path class="cls-2" d="M276.07,332.47c54.1,0,97.97,30.94,97.97,69.1s-43.86,69.1-97.97,69.1-97.97-30.93-97.97-69.1,43.86-69.1,97.97-69.1Z"/>
      <path class="cls-2" d="M276.07,333.47c-13.13,0-25.86,1.81-37.85,5.39-5.76,1.72-11.31,3.84-16.5,6.32-5.14,2.45-9.97,5.26-14.35,8.35-4.38,3.09-8.36,6.49-11.82,10.1-3.49,3.64-6.48,7.53-8.9,11.56-2.46,4.1-4.34,8.38-5.61,12.74-1.29,4.46-1.95,9.05-1.95,13.65s.66,9.19,1.95,13.65c1.26,4.35,3.15,8.64,5.61,12.74,2.42,4.03,5.41,7.92,8.9,11.56,3.46,3.61,7.44,7.01,11.82,10.1,4.39,3.09,9.22,5.9,14.35,8.35,5.19,2.47,10.74,4.6,16.5,6.32,11.98,3.58,24.72,5.39,37.85,5.39s25.86-1.81,37.85-5.39c5.76-1.72,11.31-3.84,16.5-6.32,5.14-2.45,9.97-5.26,14.35-8.35,4.38-3.09,8.36-6.49,11.82-10.1,3.49-3.64,6.48-7.53,8.9-11.56,2.46-4.1,4.34-8.38,5.61-12.74,1.29-4.46,1.95-9.05,1.95-13.65s-.66-9.19-1.95-13.65c-1.26-4.35-3.15-8.64-5.61-12.74-2.42-4.03-5.41-7.92-8.9-11.56-3.46-3.61-7.44-7.01-11.82-10.1-4.39-3.09-9.22-5.9-14.35-8.35-5.19-2.47-10.74-4.6-16.5-6.32-11.98-3.58-24.72-5.39-37.85-5.39M276.07,332.47c54.11,0,97.97,30.94,97.97,69.1s-43.86,69.1-97.97,69.1-97.97-30.94-97.97-69.1,43.86-69.1,97.97-69.1Z"/>
    </g>
    <g id="Tracé_10" data-name="Tracé 10">
      <path class="cls-4" d="M276.07,332.47l42.31,42.31-42.31,42.31-42.31-42.31,42.31-42.31Z"/>
      <path class="cls-4" d="M276.07,333.89l-40.9,40.9,40.9,40.9,40.9-40.9-40.9-40.9M276.07,332.47l42.31,42.31-42.31,42.31-42.31-42.31,42.31-42.31Z"/>
    </g>
    <path id="Polygone_4" data-name="Polygone 4" class="cls-1" d="M276.07,383.96l31.66,52.77h-63.32l31.66-52.77Z"/>
    <path id="Polygone_5" data-name="Polygone 5" class="cls-1" d="M536.08,15.93l-16.78,105.52-84.22-70.67,101-34.85Z"/>
    <g id="Tracé_11" data-name="Tracé 11">
      <path class="cls-4" d="M61.88,2.05l61.88,61.88-61.88,61.88L0,63.92,61.88,2.05Z"/>
      <path class="cls-4" d="M61.88,3.46L1.41,63.92l60.46,60.46,60.46-60.46L61.88,3.46M61.88,2.05l61.88,61.88-61.88,61.88L0,63.92,61.88,2.05Z"/>
    </g>
  </g>
</svg>