<?xml version="1.0" encoding="UTF-8"?>
<svg id="Layer_1" data-name="Layer 1" xmlns="http://www.w3.org/2000/svg" viewBox="0 0 21.15 31.78">
  <defs>
    <style>
      .cls-1 {
        fill: #090909;
      }

      .cls-2 {
        fill: #fc0082;
      }

      .cls-3 {
        fill: #feb327;
      }

      .cls-4 {
        fill: #216bdb;
      }
    </style>
  </defs>
  <g id="custom-cursor-pointer">
    <g id="Polygone_1" data-name="Polygone 1">
      <path class="cls-2" d="M20.69,17.7L.29,25.12,2.89.54l17.8,17.16Z"/>
      <path d="M3.09,1.07L.58,24.75l19.65-7.15L3.09,1.07M2.7,0l18.46,17.79L0,25.49,2.7,0Z"/>
    </g>
    <g id="Tracé_3" data-name="Tracé 3">
      <path class="cls-4" d="M12.54,27.27l-6.97-3.41,3.15-7.09,6.97,3.41-3.15,7.09Z"/>
      <path class="cls-1" d="M8.84,17.1l-2.95,6.64,6.52,3.19,2.95-6.64-6.52-3.19M8.59,16.42l7.42,3.63-3.35,7.55-7.42-3.63,3.35-7.55Z"/>
    </g>
    <g id="Tracé_2" data-name="Tracé 2">
      <path class="cls-3" d="M11.14,31.16s-.04-.02-.07-.03c-2-.98-2.9-3.43-1.99-5.47.43-.97,1.21-1.71,2.19-2.07.98-.37,2.04-.32,3,.13.02.01.04.02.07.03,2,.98,2.9,3.43,1.99,5.47-.43.97-1.21,1.71-2.19,2.07-.98.37-2.04.32-3-.13Z"/>
      <path d="M14.17,23.94c-.9-.42-1.9-.46-2.81-.12-.91.34-1.64,1.03-2.04,1.94-.85,1.92-.01,4.22,1.87,5.15.92.45,1.94.5,2.87.15.91-.34,1.64-1.03,2.04-1.94.85-1.92.01-4.22-1.87-5.15-.02-.01-.04-.02-.06-.03M14.38,23.48s.05.02.07.03c2.13,1.04,3.07,3.63,2.11,5.8-.96,2.16-3.47,3.07-5.59,2.04-2.13-1.04-3.07-3.63-2.11-5.8.95-2.14,3.41-3.05,5.52-2.07Z"/>
    </g>
  </g>
</svg>