<?xml version="1.0" encoding="UTF-8"?>
<svg id="Layer_1" data-name="Layer 1" xmlns="http://www.w3.org/2000/svg" xmlns:xlink="http://www.w3.org/1999/xlink" viewBox="0 0 32 32">
  <defs>
    <style>
      .cls-1 {
        fill: #ed1a81;
      }

      .cls-1, .cls-2, .cls-3, .cls-4, .cls-5, .cls-6 {
        stroke-width: 0px;
      }

      .cls-2 {
        fill: #3f6ab3;
      }

      .cls-3 {
        fill: #f8d492;
      }

      .cls-4 {
        fill: none;
      }

      .cls-7 {
        clip-path: url(#clippath-1);
      }

      .cls-5 {
        fill: #fcb325;
      }

      .cls-8 {
        clip-path: url(#clippath);
      }

      .cls-6 {
        fill: #150c3e;
      }
    </style>
    <clipPath id="clippath">
      <circle class="cls-4" cx="16" cy="16" r="16"/>
    </clipPath>
    <clipPath id="clippath-1">
      <circle class="cls-4" cx="16" cy="16" r="16.02"/>
    </clipPath>
  </defs>
  <g class="cls-8">
    <rect class="cls-6" y="0" width="32" height="32"/>
    <g class="cls-7">
      <g id="Groupe_2" data-name="Groupe 2">
        <g id="Tracé_4" data-name="Tracé 4">
          <path class="cls-5" d="M15.89,10.87c3.88,0,7.03,3.15,7.03,7.03s-3.15,7.03-7.03,7.03-7.03-3.15-7.03-7.03,3.15-7.03,7.03-7.03Z"/>
          <path class="cls-5" d="M15.89,10.91c-.47,0-.95.05-1.41.14-.45.09-.89.23-1.31.41-.41.18-.81.39-1.19.64-.37.25-.72.54-1.03.85-.32.32-.6.66-.85,1.03-.25.37-.47.77-.64,1.19-.18.42-.32.86-.41,1.31-.09.46-.14.93-.14,1.41s.05.95.14,1.41c.09.45.23.89.41,1.31.18.41.39.81.64,1.19.25.37.54.72.85,1.03.32.32.66.6,1.03.85.37.25.77.47,1.19.64.42.18.86.32,1.31.41.46.09.93.14,1.41.14s.95-.05,1.41-.14c.45-.09.89-.23,1.31-.41.41-.18.81-.39,1.19-.64.37-.25.72-.54,1.03-.85.32-.32.6-.66.85-1.03.25-.37.47-.77.64-1.19.18-.42.32-.86.41-1.31.09-.46.14-.93.14-1.41s-.05-.95-.14-1.41c-.09-.45-.23-.89-.41-1.31-.18-.41-.39-.81-.64-1.19-.25-.37-.54-.72-.85-1.03-.32-.32-.66-.6-1.03-.85-.37-.25-.77-.47-1.19-.64-.42-.18-.86-.32-1.31-.41-.46-.09-.93-.14-1.41-.14M15.89,10.87c3.88,0,7.03,3.15,7.03,7.03s-3.15,7.03-7.03,7.03-7.03-3.15-7.03-7.03,3.15-7.03,7.03-7.03Z"/>
        </g>
        <g id="Tracé_6" data-name="Tracé 6">
          <path class="cls-5" d="M8.27,7.15c1.21,0,2.2.98,2.2,2.2s-.98,2.2-2.2,2.2-2.2-.98-2.2-2.2h0c0-1.21.98-2.2,2.2-2.2Z"/>
          <path class="cls-5" d="M8.27,7.19c-.29,0-.58.06-.84.17-.13.05-.25.12-.37.2-.11.08-.22.17-.32.26-.1.1-.19.21-.26.32-.08.12-.15.24-.2.37-.11.27-.17.55-.17.84s.06.58.17.84c.05.13.12.25.2.37.08.11.17.22.26.32s.21.19.32.26c.12.08.24.15.37.2.27.11.55.17.84.17s.58-.06.84-.17c.13-.05.25-.12.37-.2.11-.08.22-.17.32-.26.1-.1.19-.21.26-.32.08-.12.15-.24.2-.37.11-.27.17-.55.17-.84s-.06-.58-.17-.84c-.05-.13-.12-.25-.2-.37-.08-.11-.17-.22-.26-.32s-.21-.19-.32-.26c-.12-.08-.24-.15-.37-.2-.27-.11-.55-.17-.84-.17M8.27,7.15c1.21,0,2.2.98,2.2,2.2s-.98,2.2-2.2,2.2-2.2-.98-2.2-2.2.98-2.2,2.2-2.2Z"/>
        </g>
        <g id="Tracé_7" data-name="Tracé 7">
          <path class="cls-5" d="M23.69,7.08c1.23,0,2.24,1,2.24,2.24s-1,2.24-2.24,2.24-2.24-1-2.24-2.24c0-1.23,1-2.24,2.24-2.24h0Z"/>
          <path class="cls-5" d="M23.69,7.11c-.3,0-.59.06-.86.17-.13.06-.26.12-.37.2-.12.08-.23.17-.33.27s-.19.21-.27.33c-.08.12-.15.24-.2.37-.11.27-.17.56-.17.86s.06.59.17.86c.06.13.12.26.2.37.08.12.17.23.27.33.1.1.21.19.33.27.12.08.24.15.37.2.27.11.56.17.86.17s.59-.06.86-.17c.13-.06.26-.12.37-.2.12-.08.23-.17.33-.27.1-.1.19-.21.27-.33.08-.12.15-.24.2-.37.11-.27.17-.56.17-.86s-.06-.59-.17-.86c-.06-.13-.12-.26-.2-.37-.08-.12-.17-.23-.27-.33s-.21-.19-.33-.27c-.12-.08-.24-.15-.37-.2-.27-.11-.56-.17-.86-.17M23.69,7.08c1.23,0,2.24,1,2.24,2.24s-1,2.24-2.24,2.24-2.24-1-2.24-2.24,1-2.24,2.24-2.24Z"/>
        </g>
        <path id="Polygone_3" data-name="Polygone 3" class="cls-1" d="M13.67,14.5l1.4,2.35h-2.81l1.4-2.35Z"/>
        <g id="Tracé_8" data-name="Tracé 8">
          <path class="cls-2" d="M18.26,14.53l1.33,1.33-1.33,1.33-1.33-1.33,1.33-1.33Z"/>
          <path class="cls-2" d="M18.26,14.58l-1.28,1.28,1.28,1.28,1.28-1.28-1.28-1.28M18.26,14.53l1.33,1.33-1.33,1.33-1.33-1.33,1.33-1.33Z"/>
        </g>
        <g id="Tracé_9" data-name="Tracé 9">
          <path class="cls-3" d="M15.89,18.89c1.92,0,3.48,1.1,3.48,2.46s-1.56,2.46-3.48,2.46-3.48-1.1-3.48-2.46,1.56-2.46,3.48-2.46Z"/>
          <path class="cls-3" d="M15.89,18.93c-.47,0-.92.06-1.35.19-.2.06-.4.14-.59.22-.18.09-.35.19-.51.3-.16.11-.3.23-.42.36-.12.13-.23.27-.32.41-.09.15-.15.3-.2.45-.05.16-.07.32-.07.49s.02.33.07.49c.04.15.11.31.2.45.09.14.19.28.32.41.12.13.26.25.42.36.16.11.33.21.51.3.18.09.38.16.59.22.43.13.88.19,1.35.19s.92-.06,1.35-.19c.2-.06.4-.14.59-.22.18-.09.35-.19.51-.3.16-.11.3-.23.42-.36.12-.13.23-.27.32-.41.09-.15.15-.3.2-.45.05-.16.07-.32.07-.49s-.02-.33-.07-.49c-.04-.15-.11-.31-.2-.45-.09-.14-.19-.28-.32-.41-.12-.13-.26-.25-.42-.36-.16-.11-.33-.21-.51-.3-.18-.09-.38-.16-.59-.22-.43-.13-.88-.19-1.35-.19M15.89,18.89c1.92,0,3.48,1.1,3.48,2.46s-1.56,2.46-3.48,2.46-3.48-1.1-3.48-2.46,1.56-2.46,3.48-2.46Z"/>
        </g>
        <g id="Tracé_10" data-name="Tracé 10">
          <path class="cls-2" d="M15.89,18.89l1.5,1.5-1.5,1.5-1.5-1.5,1.5-1.5Z"/>
          <path class="cls-2" d="M15.89,18.94l-1.45,1.45,1.45,1.45,1.45-1.45-1.45-1.45M15.89,18.89l1.5,1.5-1.5,1.5-1.5-1.5,1.5-1.5Z"/>
        </g>
        <path id="Polygone_4" data-name="Polygone 4" class="cls-1" d="M15.89,20.72l1.13,1.88h-2.25l1.13-1.88Z"/>
        <path id="Polygone_5" data-name="Polygone 5" class="cls-1" d="M25.13,7.64l-.6,3.75-2.99-2.51,3.59-1.24Z"/>
        <g id="Tracé_11" data-name="Tracé 11">
          <path class="cls-2" d="M8.27,7.15l2.2,2.2-2.2,2.2-2.2-2.2,2.2-2.2Z"/>
          <path class="cls-2" d="M8.27,7.2l-2.15,2.15,2.15,2.15,2.15-2.15-2.15-2.15M8.27,7.15l2.2,2.2-2.2,2.2-2.2-2.2,2.2-2.2Z"/>
        </g>
      </g>
    </g>
  </g>
</svg>