<?xml version="1.0" encoding="UTF-8"?>
<svg id="Layer_1" data-name="Layer 1" xmlns="http://www.w3.org/2000/svg" viewBox="0 0 586.76 588.18">
  <defs>
    <style>
      .cls-1 {
        fill: #fc0082;
      }

      .cls-2 {
        fill: #feb327;
      }

      .cls-3 {
        fill: #216bdb;
      }
    </style>
  </defs>
  <g id="Groupe_1" data-name="Groupe 1">
    <g id="Tracé_3" data-name="Tracé 3">
      <path class="cls-3" d="M143.38,300.62l143.38,143.38-143.38,143.38L0,444l143.38-143.38Z"/>
      <path class="cls-3" d="M143.38,302.04L1.41,444l141.96,141.96,141.96-141.96-141.96-141.96M143.38,300.62l143.38,143.38-143.38,143.38L0,444l143.38-143.38Z"/>
    </g>
    <g id="Tracé_2" data-name="Tracé 2">
      <path class="cls-2" d="M461.76,319c69.04,0,125,55.96,125,125s-55.96,125-125,125-125-55.96-125-125,55.96-125,125-125Z"/>
      <path class="cls-2" d="M461.76,320c-8.41,0-16.82.85-24.99,2.52-7.96,1.63-15.79,4.06-23.27,7.22-7.35,3.11-14.43,6.95-21.06,11.43-6.57,4.44-12.74,9.53-18.35,15.14-5.61,5.61-10.71,11.79-15.14,18.35-4.48,6.63-8.32,13.72-11.43,21.06-3.16,7.48-5.6,15.31-7.22,23.27-1.67,8.17-2.52,16.58-2.52,24.99s.85,16.82,2.52,24.99c1.63,7.96,4.06,15.79,7.22,23.27,3.11,7.35,6.95,14.43,11.43,21.06,4.44,6.57,9.53,12.74,15.14,18.35,5.61,5.61,11.79,10.71,18.35,15.14,6.63,4.48,13.72,8.32,21.06,11.43,7.48,3.16,15.31,5.6,23.27,7.22,8.17,1.67,16.58,2.52,24.99,2.52s16.82-.85,24.99-2.52c7.96-1.63,15.79-4.06,23.27-7.22,7.35-3.11,14.43-6.95,21.06-11.43,6.57-4.44,12.74-9.53,18.35-15.14,5.61-5.61,10.71-11.79,15.14-18.35,4.48-6.63,8.32-13.72,11.43-21.06,3.16-7.48,5.6-15.31,7.22-23.27,1.67-8.17,2.52-16.58,2.52-24.99s-.85-16.82-2.52-24.99c-1.63-7.96-4.06-15.79-7.22-23.27-3.11-7.35-6.95-14.43-11.43-21.06-4.44-6.57-9.53-12.74-15.14-18.35-5.61-5.61-11.79-10.71-18.35-15.14-6.63-4.48-13.72-8.32-21.06-11.43-7.48-3.16-15.31-5.6-23.27-7.22-8.17-1.67-16.58-2.52-24.99-2.52M461.76,319c69.04,0,125,55.96,125,125s-55.96,125-125,125-125-55.96-125-125,55.96-125,125-125Z"/>
    </g>
    <path id="Polygone_1" data-name="Polygone 1" class="cls-1" d="M311.76,0l150,250H161.76L311.76,0Z"/>
  </g>
</svg>