<svg xmlns="http://www.w3.org/2000/svg" width="586.758" height="587.379" viewBox="0 0 586.758 587.379">
  <g id="Groupe_1" data-name="Groupe 1" transform="translate(-297.242 -209)">
    <g id="Tracé_3" data-name="Tracé 3" transform="translate(440.621 509.621) rotate(45)" fill="#216bdb">
      <path d="M0,0H202.769V202.769H0Z" stroke="none"/>
      <path d="M 0.9999847412109375 0.9999847412109375 L 0.9999847412109375 201.7685241699219 L 201.7685241699219 201.7685241699219 L 201.7685241699219 0.9999847412109375 L 0.9999847412109375 0.9999847412109375 M -1.52587890625e-05 -1.52587890625e-05 L 202.7685241699219 -1.52587890625e-05 L 202.7685241699219 202.7685241699219 L -1.52587890625e-05 202.7685241699219 L -1.52587890625e-05 -1.52587890625e-05 Z" stroke="none" fill="rgba(112,112,112,0)"/>
    </g>
    <g id="Tracé_2" data-name="Tracé 2" transform="translate(634 528)" fill="#feb327">
      <path d="M125,0A125,125,0,1,1,0,125,125,125,0,0,1,125,0Z" stroke="none"/>
      <path d="M 125 1 C 116.5860900878906 1 108.1777801513672 1.84759521484375 100.0086212158203 3.519256591796875 C 92.04756164550781 5.1483154296875 84.21681213378906 7.579132080078125 76.73390197753906 10.74412536621094 C 69.38662719726562 13.85177612304688 62.30006408691406 17.69821166992188 55.67112731933594 22.17665100097656 C 49.10487365722656 26.61271667480469 42.93025207519531 31.70724487304688 37.31875610351562 37.31875610351562 C 31.70724487304688 42.93025207519531 26.61271667480469 49.10487365722656 22.17665100097656 55.67112731933594 C 17.69821166992188 62.30006408691406 13.85177612304688 69.38662719726562 10.74412536621094 76.73390197753906 C 7.579132080078125 84.21681213378906 5.1483154296875 92.04756164550781 3.519256591796875 100.0086212158203 C 1.84759521484375 108.1777801513672 1 116.5860900878906 1 125 C 1 133.4139099121094 1.84759521484375 141.8222198486328 3.519256591796875 149.9913787841797 C 5.1483154296875 157.9524383544922 7.579132080078125 165.7831878662109 10.74412536621094 173.2660827636719 C 13.85177612304688 180.6133728027344 17.69821166992188 187.6999359130859 22.17665100097656 194.3288726806641 C 26.61271667480469 200.8951263427734 31.70724487304688 207.0697479248047 37.31875610351562 212.6812438964844 C 42.93025207519531 218.2927551269531 49.10487365722656 223.3872833251953 55.67112731933594 227.8233489990234 C 62.30006408691406 232.3017883300781 69.38662719726562 236.1482238769531 76.73390197753906 239.2558746337891 C 84.21681213378906 242.4208679199219 92.04756164550781 244.8516845703125 100.0086212158203 246.4807434082031 C 108.1777801513672 248.1524047851562 116.5860900878906 249 125 249 C 133.4139099121094 249 141.8222198486328 248.1524047851562 149.9913787841797 246.4807434082031 C 157.9524383544922 244.8516845703125 165.7831878662109 242.4208679199219 173.2660827636719 239.2558746337891 C 180.6133728027344 236.1482238769531 187.6999359130859 232.3017883300781 194.3288726806641 227.8233489990234 C 200.8951263427734 223.3872833251953 207.0697479248047 218.2927551269531 212.6812438964844 212.6812438964844 C 218.2927551269531 207.0697479248047 223.3872833251953 200.8951263427734 227.8233489990234 194.3288726806641 C 232.3017883300781 187.6999359130859 236.1482238769531 180.6133728027344 239.2558746337891 173.2660827636719 C 242.4208679199219 165.7831878662109 244.8516845703125 157.9524383544922 246.4807434082031 149.9913787841797 C 248.1524047851562 141.8222198486328 249 133.4139099121094 249 125 C 249 116.5860900878906 248.1524047851562 108.1777801513672 246.4807434082031 100.0086212158203 C 244.8516845703125 92.04756164550781 242.4208679199219 84.21681213378906 239.2558746337891 76.73390197753906 C 236.1482238769531 69.38662719726562 232.3017883300781 62.30006408691406 227.8233489990234 55.67112731933594 C 223.3872833251953 49.10487365722656 218.2927551269531 42.93025207519531 212.6812438964844 37.31875610351562 C 207.0697479248047 31.70724487304688 200.8951263427734 26.61271667480469 194.3288726806641 22.17665100097656 C 187.6999359130859 17.69821166992188 180.6133728027344 13.85177612304688 173.2660827636719 10.74412536621094 C 165.7831878662109 7.579132080078125 157.9524383544922 5.1483154296875 149.9913787841797 3.519256591796875 C 141.8222198486328 1.84759521484375 133.4139099121094 1 125 1 M 125 0 C 194.0355987548828 0 250 55.96440124511719 250 125 C 250 194.0355987548828 194.0355987548828 250 125 250 C 55.96440124511719 250 0 194.0355987548828 0 125 C 0 55.96440124511719 55.96440124511719 0 125 0 Z" stroke="none" fill="rgba(112,112,112,0)"/>
    </g>
    <path id="Polygone_1" data-name="Polygone 1" d="M150,0,300,250H0Z" transform="translate(459 209)" fill="#fc0082"/>
  </g>
</svg>
